<?xml version="1.0" encoding="UTF-8" standalone="no"?>
<svg
   xmlns:dc="http://purl.org/dc/elements/1.1/"
   xmlns:cc="http://creativecommons.org/ns#"
   xmlns:rdf="http://www.w3.org/1999/02/22-rdf-syntax-ns#"
   xmlns:svg="http://www.w3.org/2000/svg"
   xmlns="http://www.w3.org/2000/svg"
   xmlns:sodipodi="http://sodipodi.sourceforge.net/DTD/sodipodi-0.dtd"
   xmlns:inkscape="http://www.inkscape.org/namespaces/inkscape"
   viewBox="0 0 1200.5 1200.5"
   id="svg4136"
   version="1.1"
   inkscape:version="0.91 r13725"
   sodipodi:docname="logo.svg">
  <metadata
     id="metadata4272">
    <rdf:RDF>
      <cc:Work
         rdf:about="">
        <dc:format>image/svg+xml</dc:format>
        <dc:type
           rdf:resource="http://purl.org/dc/dcmitype/StillImage" />
      </cc:Work>
    </rdf:RDF>
  </metadata>
  <defs
     id="defs4270">
    <inkscape:perspective
       sodipodi:type="inkscape:persp3d"
       inkscape:vp_x="0 : 600.25 : 1"
       inkscape:vp_y="0 : 1000 : 0"
       inkscape:vp_z="1200.5 : 600.25 : 1"
       inkscape:persp3d-origin="600.25 : 400.16667 : 1"
       id="perspective4300" />
  </defs>
  <sodipodi:namedview
     pagecolor="#ffffff"
     bordercolor="#666666"
     borderopacity="1"
     objecttolerance="10"
     gridtolerance="10"
     guidetolerance="10"
     inkscape:pageopacity="0"
     inkscape:pageshadow="2"
     inkscape:window-width="1858"
     inkscape:window-height="1057"
     id="namedview4268"
     showgrid="false"
     inkscape:zoom="0.7396918"
     inkscape:cx="540.21222"
     inkscape:cy="208.43885"
     inkscape:window-x="1334"
     inkscape:window-y="-8"
     inkscape:window-maximized="1"
     inkscape:current-layer="g4262" />
  <path
     fill="#BC9562"
     d="M441.3 561.7c-8.9 6.9-18.8 10.5-28.9 10.5-5 0-10-.9-14.9-2.7-3.2-1.2-6.3-2.7-9.2-4.6-1.4 4.6-3 13.8.4 26.3 2.3-2 5.1-4.1 8-5.8s10.1-7.1 16.9-7.6c0 0 .7 6.5 2.1 12.9 1.6 6 5.8 17.6 15.6 27.5 0-.4-.1-.7-.1-1.1-1.8-29.5 6.8-46.7 10.1-52.1v-3.3z"
     id="path4138" />
  <path
     fill="#EFD2AB"
     d="M392.7 461.2c5.9-1.3 11.7-2.5 17.1-3.5 0 0-8-.3-17.1 3.5zM478.3 668.9l1.3.6.9 1.1c.1.2 14 17 39.7 33.5 23.7 15.2 62.6 33.3 113.6 33.3 75.7 0 124.3-22.3 140.4-64.5 2.8-7.4 2.6-14.8-.5-19.8-1.7-2.7-4.3-4.6-7.5-5.6-6.5-1.3-16.7 3.1-16.7 3.1-.3-6.8 8.1-13.6 9.7-14.8 3.4-3 5.1-6.9 4.7-8.9-.1-.4-.3-1.3-2.7-2-6-1.6-18 8.8-24.2 16.3l-1.8 2.2H512.1c-15.6 0-28.3-12.7-28.3-28.3s12.7-28.3 28.3-28.3h233.5c1.4 0 2.8-.8 3.3-1.9.7-1.4-.2-2.9-1.1-4-3.2-3.9-5-7.5-5.9-10.5-2.4.5-4.6.8-6.4 1-23.2 2.9-47.5-4.6-67-10.7-10.6-3.3-22.6-7-26.5-5.8-1.3.4-4.3 2.9-6.8 4.9-6.4 5.3-14.9 12.3-25.1 12.3-.9 0-1.8-.1-2.7-.2-9.2-1.1-15.7-6-18.4-13.8-3.7-10.7.9-24.9 7.4-31.4.3-.3.5-.5.8-.7 9.2-9 19.3-.9 19.3-.9-1.7.1-8.9 6.4-11.5 9.9-2.3 3.3-3.7 6.4-4.3 8.1-1.1 3.7-1.5 7.8-.4 11.1.7 2.1 2.4 5.1 8.5 5.8 6.3.8 12.9-4.7 18.7-9.5.5-.4 1-.8 1.4-1.2 3.3-3.1 8-8.6 7.8-14.7 0 0 20.8 9.7 33.5 14 .6.2 1.2.4 1.7.5 18.4 5.7 41.3 12.8 61.9 10.2 20.6-2.6 27.1-9.3 27.6-12.9.3-2-1-3.4-2.4-4.1-2-.9-6.2-.9-11.5-1-14.3 0-38.3-.1-80-15.8-38.3-14.4-53.2-46.9-58.9-72.2v-.2c-.1-.4-.2-.7-.2-1.1-.1-.3-.1-.5-.1-.8-3.6-21.2 9.4-29.9 9.4-29.9-.9 5.5 2.5 27.7 2.9 30.2 5.2 22.2 18.3 50.4 51.2 62.7 31.5 11.8 52.2 14.3 66.1 14.8v-19.9h-24.8c-22.9 0-44.5-8.7-61.1-24.4-16.6-15.9-26.1-37.1-26.8-59.9v-5.6c0-.7.1-1.5.1-2.3h-27.7c.1 1.7.1 3.3.1 5 0 46.4-36.5 84.5-82.3 87-.4.1-.8.1-1.3.1h-26.3c-12.2 0-24-2.5-34.9-7.1V557c6.8-2.4 12.8-1.7 12.8-1.7-5.8 4.9-11.6 12.1-12.9 13.6l-1.1 1.4c-3.7 5.1-10.4 21.4-8.9 46 2 26.1 19.7 45.5 35.5 52.6zm299.3-170.1c-8.4 4.6-17.7 7.8-27.5 9.4v21.3c4.6 0 8.4.2 11.6 1.1 4.8-3 17.4-13 15.9-31.8zm-375.9 59.5c13.6 5 28 .4 39.4-12.8.1-.1.2-.2.2-.3V496c-5-3.2-9.8-6.8-14.2-11-6.6-6.3-12.1-13.5-16.4-21.3-.4.1-.8.1-1.1.1-.1 0-15-.2-25.7 10.3-7.7 7.6-11.6 19.1-11.5 34.1.2 23.5 12 43.7 29.3 50.1zm388-57.9c.2-1.2.2-2.2-.2-3.2.1 1.1.2 2.1.2 3.2zm-96.2-169.6L654.8 346c-1.4.6-3 .5-4.4 0l-28.5-11.5c0 1.4-.2 2.8-.4 4.2-1.3 12.5-9.5 31.2-9.5 31.2-3.3-12.4-14.3-18.7-18.4-20.6-29.2-11.1-62.3-16.1-82-18.2H482c-8.1 1.7-14.8 4.7-19.8 8.2 8.3-2.6 17.1-3.9 26-3.9h23.9c31.6.4 59.2 17.7 74.1 43.3h51c15.7-26.8 44.7-43.3 76.1-43.3h23.9c5.4.1 10.6.6 15.7 1.6-3.1-2.8-7-4.8-10-6h-49.4z"
     id="path4140" />
  <path
     fill="#BC9562"
     d="M361.4 330.4c-5.1 4.5-16.1 15-21.3 27l16.4-1.6c3-.4 11.1-1.7 18.5-5.9 0 0-8.2 14.1-11.9 21.8-6.6 14.9-13.2 33-15.3 48.6 7.6-5.3 20.6-16.5 31.2-26.7.2-.2.5-.4.8-.6 4.6-4.7 11.4-12 15.9-18.8 0 0 0 9.1-7.3 27.1-.5 1.2-1 2.2-1.5 3.1-7.7 17.6-13.8 34.8-15.2 42.9 4.8-.5 11.2-.2 16.1 3.2 1.4 1 3 2.4 4.2 4.5 5.3-2 10.1-2.8 13.5-3.1-3.1-8.5-4.9-17.5-5.1-26.8v-5.6c.6-22.7 10.1-44 26.8-59.9 4.4-4.2 9.3-7.9 14.4-11.1 1.4-6.8 5.8-13.1 12.4-18.1h-92.6z"
     id="path4142" />
  <path
     fill="#E2C19A"
     d="M441.1 545.4c.1-.1.2-.2.2-.3V496c-5-3.2-9.8-6.8-14.2-11l-.3-.3v72.1c5.1-2.5 9.9-6.3 14.3-11.4zM652.3 484.9c-16-15.3-25.4-35.6-26.6-57.4-.6 3.6-.9 7.3-.9 11.1 0 43.7 36 81.7 89.9 81.7 11.2 0 17.9 5.1 23.3 9h.2v-19.9h-24.8c-22.9 0-44.6-8.7-61.1-24.5zm-12-79.7h.2c4-.1 7.2-3.4 7.2-7.4 0-2.8-1.6-5.2-3.9-6.5-3.9 4.3-7.3 8.9-10.1 13.8h6.6z"
     id="path4144" />
  <path
     fill="#B2B2B2"
     d="M675.6 359.7h-4.2c-3.7 2.4-7.1 5.1-10.3 8.1h7.1l.3-.3c2.2-2.8 4.6-5.4 7.1-7.8z"
     id="path4146" />
  <path
     d="M637.5 420.7v4.1c.1 2.2.2 4.4.5 6.5h11c-4.4-9-10.2-10.4-11.5-10.6zm16.2 29.9c-1.5-4.3-2.6-8.8-3.4-13.3h-11.4c.9 4.6 2.3 9 4 13.3h10.8zm-3.9-69.5c.2.1.4.3.6.4 1.4-.1 6.8-.9 13-7.6h-8.1c-1.9 2.2-3.8 4.6-5.5 7.2zm19.7 97.2c-2.3-2.7-4.4-5.6-6.4-8.6h-8.6c1.9 2.3 3.9 4.4 6 6.5 2.4 2.3 5 4.4 7.6 6.4 2.2 1.4 8 4.7 2.2-2.9-.4-.6-.7-1-.8-1.4zm-23.8-21.7c1.3 2.5 2.7 4.8 4.3 7.2h9.5c-1.3-2.3-2.4-4.7-3.5-7.2h-10.3z"
     fill="#6A6A6D"
     id="path4148" />
  <path
     fill="#B2B2B2"
     d="M637.5 420.7v4.1c.1 2.2.2 4.4.5 6.5h11c-4.4-9-10.2-10.4-11.5-10.6zm8.2 35.9c1.3 2.5 2.7 4.8 4.3 7.2h9.5c-1.3-2.3-2.4-4.7-3.5-7.2h-10.3z"
     id="path4150" />
  <path
     fill="#E78100"
     d="M640.3 390.5h-48.2c1.9 4.7 3.3 9.6 4.3 14.7h44.1c4-.1 7.2-3.4 7.2-7.4-.1-4-3.4-7.3-7.4-7.3z"
     id="path4152" />
  <path
     fill="#E7AD00"
     d="M614.1 399.2h33.5c.1-.4.1-.9.1-1.3 0-4.1-3.3-7.4-7.4-7.4h-37.5c1.3 5 5.9 8.7 11.3 8.7z"
     id="path4154" />
  <path
     fill="#6A6A6D"
     d="M736.1 347.2c-41.4 0-75.1 33.7-75.1 75.1s33.7 75.1 75.1 75.1c41.4 0 75.1-33.7 75.1-75.1s-33.7-75.1-75.1-75.1zm0 130.1c-30.4 0-55.1-24.7-55.1-55.1s24.7-55.1 55.1-55.1 55.1 24.7 55.1 55.1-24.7 55.1-55.1 55.1z"
     id="path4156" />
  <path
     fill="#9696B2"
     d="M736.1 367.2c-30.4 0-55.1 24.7-55.1 55.1s24.7 55.1 55.1 55.1 55.1-24.7 55.1-55.1-24.7-55.1-55.1-55.1z"
     id="path4158" />
  <path
     fill="#83839E"
     d="M736.1 477.3c30.4 0 55.1-24.7 55.1-55.1 0-15.1-6.1-28.8-16-38.7l-79.5 76.1c10 10.9 24.4 17.7 40.4 17.7z"
     id="path4160" />
  <path
     fill="#777793"
     d="M743.6 476.8c26.8-3.7 47.6-26.7 47.6-54.5s-20.8-50.9-47.6-54.5c22.3 8.1 38.2 29.5 38.2 54.5-.1 25.1-16 46.4-38.2 54.5z"
     id="path4162" />
  <path
     fill="#C6BBAC"
     d="M478.3 668.9l1.3.6.9 1.1c.1.2 14 17 39.7 33.5 23.7 15.2 62.6 33.3 113.6 33.3 75.7 0 124.3-22.3 140.4-64.5 2.8-7.4 2.6-14.8-.5-19.8-1.7-2.7-4.3-4.6-7.5-5.6-6.5-1.3-16.7 3.1-16.7 3.1-.3-6.8 8.1-13.6 9.7-14.8 3.4-3 5.1-6.9 4.7-8.9-.1-.4-.3-1.3-2.7-2-6-1.6-18 8.8-24.2 16.3l-1.8 2.2H512.1c-15.6 0-28.3-12.7-28.3-28.3s12.7-28.3 28.3-28.3h233.5c1.4 0 2.8-.8 3.3-1.9.7-1.4-.2-2.9-1.1-4-1.1-1.3-2-2.6-2.8-3.8H615.8c-34.5 0-60.9-13.3-73.1-20.8-2.4-1.9-4.8-3.6-7.5-5.1-9.2-5.3-19.9-8.4-31.4-8.4-14.2 0-27.3 4.7-37.8 12.7-5.8 4.9-11.6 12-12.8 13.6l-1.1 1.4c-3.7 5.1-10.4 21.4-8.9 46 1.6 25.9 19.3 45.3 35.1 52.4z"
     id="path4164" />
  <path
     fill="#242444"
     d="M508.7 620.3h-.2c-11.9-1.3-13.5-9-13.6-10.4-.1-.4 0-.7.1-1.1 2.2-5.9 7.3-10.3 13.4-11.6h.4c.5 0 .9.2 1.3.4.5.4.7 1 .7 1.6v19.1c0 .6-.2 1.1-.7 1.5-.4.3-.9.5-1.4.5z"
     id="path4166" />
  <path
     fill="#B2B2B2"
     d="M445.5 360.2c-3.3 2.3-6.5 4.8-9.5 7.6h7.1c2.1-2.7 4.4-5.2 6.8-7.6h-4.4zm-18.3 38.1c.7-2.4 1.5-4.8 2.4-7.2H419c-1.1 2.3-2 4.7-2.9 7.2h11.1zm-2.9 33c-.3-2.5-.4-5-.4-7.6h-11.5v1.1c.1 2.2.2 4.4.5 6.5h11.4zm.6 32.5h9.5c-1.3-2.3-2.4-4.7-3.5-7.2h-10.3c1.3 2.4 2.7 4.8 4.3 7.2z"
     id="path4168" />
  <path
     d="M435.4 476.3c1.5 1.4 3.1 2.8 4.7 4.1 0 0 11.1 6.9 4.9-1.1-.2-.3-.4-.5-.5-.7-2.3-2.8-4.5-5.7-6.5-8.7h-8.6c1.9 2.1 3.9 4.3 6 6.4zm-21.6-39c.9 4.6 2.3 9 4 13.3h10.8c-1.5-4.3-2.6-8.7-3.4-13.3h-11.4zm-1.3-19.6H424c.2-4.6.8-9 1.8-13.4h-11.3c-1.1 4.4-1.8 8.8-2 13.4zm9.7-32.6h10c1.9-3.9 4-7.7 6.4-11.3h-8.4c-3 3.5-5.7 7.3-8 11.3zM511 347.2c-29.3 0-54.7 16.9-67.1 41.4-.1.6-.4 1.1-.8 1.6-4.6 9.7-7.2 20.6-7.2 32.1 0 41.4 33.7 75.1 75.1 75.1 41.4 0 75.1-33.7 75.1-75.1s-33.7-75.1-75.1-75.1zm0 130.1c-30.4 0-55.1-24.7-55.1-55.1s24.7-55.1 55.1-55.1 55.1 24.7 55.1 55.1-24.8 55.1-55.1 55.1z"
     fill="#6A6A6D"
     id="path4170" />
  <path
     fill="#9696B2"
     d="M511 367.2c-30.4 0-55.1 24.7-55.1 55.1s24.7 55.1 55.1 55.1 55.1-24.7 55.1-55.1-24.8-55.1-55.1-55.1z"
     id="path4172" />
  <path
     fill="#83839E"
     d="M511 477.3c30.4 0 55.1-24.7 55.1-55.1 0-15.2-6.2-28.9-16.1-38.9l-79.5 76.1c10 11.1 24.4 17.9 40.5 17.9z"
     id="path4174" />
  <path
     fill="#777793"
     d="M517.4 477c27.3-3.2 48.6-26.5 48.6-54.7 0-28.2-21.3-51.5-48.6-54.7 22.4 8 38.5 29.5 38.5 54.7 0 25.2-16 46.6-38.5 54.7z"
     id="path4176" />
  <path
     fill="#E2C19A"
     d="M468.1 553.9v-21c.1-2.2 1.4-11.5 18.4-11.6h.1c2.9.2 5.9.4 9 .4 49.5 0 84.8-26.5 94.1-62.1-13.4 28-41.2 47.8-73.9 49.6-.4.1-.8.1-1.3.1h-26.3c-12.2 0-24-2.5-34.9-7.1V557c6.8-2.4 12.8-1.7 12.8-1.7l-.1.1 2.1-1.5z"
     id="path4178" />
  <path
     fill="#B2A697"
     d="M629.3 661.7c-.4.1-.8.1-1.3.1H505.9c-23.6 0-42.8-20.7-42.8-46.1s19.2-46.1 42.8-46.1h1.7c-3.8-2.3-12.2-5.5-25.6-1.6 0 0-13.8 1.5-13.8-8.2v-6c-.8.6-1.6 1.1-2.3 1.7-5.7 4.9-11.3 11.8-12.5 13.3l-1.1 1.4c-3.7 5.1-10.4 21.4-8.9 46 1.5 26 19.3 45.4 35.1 52.5l1.3.6.9 1.1c.1.2 14 17 39.7 33.5 3.9 2.5 8.1 5 12.8 7.6-9.7-10.7-13.4-20.8-13.4-20.8-26.2-15.4-16.5-17.5-10.5-17.6.9 0 1.9.1 2.8.1h.5-.1 8.9c18.7-.5 107.4-6.4 107.4-6.4s5.4-1.3 7-6c-1.9.6-4.1.8-6.5.9z"
     id="path4180" />
  <path
     d="M617.7 424.4c.1-1.8.2-2.9.2-2.9-.2.8-.2 1.8-.2 2.9zm130.1 117.1c-14.3 0-38.3-.1-80-15.8-38.3-14.4-53.2-46.9-58.9-72.2v-.2c-.1-.4-.2-.7-.2-1.1-.1-.3-.1-.5-.1-.8-3.6-21.2 9.4-29.9 9.4-29.9-7.2 2.1-15.1 15-15.5 22.5-.8 14.8 2.8 33.1 13.4 50.2 16 25.8 44.4 46 95.6 50.5 31 2.7 43.9.8 49.2-1.2-.4-.4-.9-.8-1.4-1-2.1-1-6.2-1-11.5-1zM399.4 557.3c-4.5-4.4-23.5-24.6-19-56.4 4.5-32 30.2-37.3 30.2-37.3v-.1c-.3 0-.6.1-1 .1-.1 0-15-.2-25.7 10.3-7.7 7.6-11.6 19.1-11.5 34.1.2 22.7 11 42.1 27 49.3z"
     fill="#F7E2C9"
     id="path4182" />
  <path
     fill="#fff"
     d="M525.9 630.7h20.6c2.5 0 4.6-1.7 5.2-4.1v-27.8h-31v27.7c.5 2.4 2.6 4.2 5.2 4.2z"
     id="path4184" />
  <path
     fill="#E7AD00"
     d="M568.9 630.7h20.6c2.5 0 4.6-1.8 5.2-4.1v-27.8h-31v27.8c.5 2.3 2.6 4.1 5.2 4.1z"
     id="path4186" />
  <path
     d="M612 630.7h20.6c2.4 0 4.4-1.6 5.1-3.8v-28.1h-31v27.1c.2 2.7 2.5 4.8 5.3 4.8zm85.9 0h20.6c2.4 0 4.5-1.6 5.1-3.9v-28h-31V626c.4 2.6 2.6 4.7 5.3 4.7zm-48.2-5.4c0 2.9 2.4 5.3 5.3 5.3h20.6c2.4 0 4.3-1.5 5-3.6v-28.2h-31l.1 26.5z"
     fill="#fff"
     id="path4188" />
  <path
     fill="#E78100"
     d="M563.7 598.8v13.7c4.3-13.1 28.2-9 31-8.5v-5.2h-31z"
     id="path4190" />
  <path
     d="M520.7 598.8v13.3c4.7-12.9 28.9-8.5 31-8.1v-5.2h-31zm86 0v14.8c3.2-14 27-10.3 31-9.6v-5.2h-31zm43 0v14.4c3.6-13.6 27.4-9.8 31-9.2v-5.2h-31zm43 0v13.5c4.5-13 28.5-8.8 31-8.3v-5.2h-31z"
     opacity=".1"
     fill="#181830"
     id="path4192" />
  <path
     fill="#BC9562"
     d="M763.8 330.8c2.6 3 4.8 6.7 5.8 11.1 4.1 1.7 8.1 3.8 11.9 6.1 2.8-3.2 6.9-5.3 12.1-6.2.5-.1 1-.2 1.4-.2-2.5-4.6-5.6-8.4-7.9-10.7h-23.3zm-187.2 0c10.6 3 21.3 6.7 31.4 11.2 1.4-3.3 2.7-7.8 1.2-11.2h-32.6z"
     id="path4194" />
  <path
     fill="#A57C4A"
     d="M441.3 561.7c-8.9 6.9-18.8 10.5-28.9 10.5-5 0-10-.9-14.9-2.7-3.2-1.2-6.3-2.7-9.2-4.6-.8 2.5-1.6 6.3-1.6 11.3 5.1-2.2 12.4-3.4 17.9 4.5 2.9-1.5 6.2-2.7 9-2.9 0 0 .7 6.5 2.1 12.9.5 1.7 1.1 3.8 2 6.3 5 .5 10.5-2.8 14.7-6.2 2.3-13.7 6.7-22.3 8.8-25.8v-3.3zm-47-230.9c.3 3.3-.1 11.1-8.9 19.6 0 0 13 5.2 31.3-10.1 0 0-13.4 23-9.4 47.7 4.5-10.6 11.2-20.3 19.9-28.5 4.4-4.2 9.3-7.9 14.4-11.1 1.3-6.6 5.6-12.7 11.8-17.7h-59.1zm-6.5 119.7c1.4 1 3 2.4 4.2 4.5 5.3-2 10.1-2.8 13.5-3.1-3.1-8.5-4.9-17.5-5.1-26.8v-6.2c-6.1 9-16.7 22.3-28.7 28.4v.1c4.8-.5 11.2-.3 16.1 3.1zm381.9-108.6c4.1 1.7 8.1 3.8 11.9 6.1 1.6-1.9 3.7-3.3 6.2-4.5-5.3-3.4-8.9-8.5-11.2-12.7h-12.7c2.6 3.1 4.7 6.7 5.8 11.1zM592.1 335.8c4.4-1.7 11-3.1 17.8-.5.1-1.5 0-3.1-.6-4.4h-32.6c5.1 1.4 10.2 3.1 15.4 4.9zm60.5-1.9l7.9-3.1h-15.4z"
     id="path4196" />
  <path
     fill="#aaa"
     d="M468.7 155h-66.6c-16.9 20.5-29.8 43.5-38.3 68.2h104.9l-1.2-1.5-5.5-5.5 8.9-10.4 2.8-3.3-12.3-12.6 9.8-11.2 2.4-3-15-12.7 9.8-7.7.3-.3z"
     id="path4198" />
  <path
     fill="#BCBCBC"
     d="M468.7 155h-66.6c-2.3 2.8-4.5 5.6-6.6 8.4 4.1 17.6 16.4 30.3 33.4 30.3h36.2l-3.7-3.8 9.8-11.2 2.4-3-15-12.7 9.8-7.7.3-.3z"
     id="path4200" />
  <path
     d="M434.4 463.8c-1.3-2.3-2.4-4.7-3.5-7.2h-10.3c1.3 2.5 2.7 4.9 4.3 7.2h9.5zm-20.6-26.5c.9 4.6 2.3 9 4 13.3h10.8c-1.5-4.3-2.6-8.7-3.4-13.3h-11.4zm29.3-47.1c-4.6 9.7-7.2 20.6-7.2 32.1 0 41.4 33.7 75.1 75.1 75.1 41.4 0 75.1-33.7 75.1-75.1s-33.7-75.1-75.1-75.1c-29.3 0-54.7 16.9-67.1 41.4-.1.6-.4 1.1-.8 1.6zm-4.5-16.4h-8.4c-3 3.5-5.7 7.3-8 11.3h10c1.9-3.9 4-7.7 6.4-11.3zm201.7 31.4h.2c4-.1 7.2-3.4 7.2-7.4 0-4.1-3.3-7.4-7.4-7.4h-48.2c1.9 4.7 3.3 9.6 4.3 14.7h43.9zm-190.4-45h-4.4c-3.3 2.3-6.5 4.8-9.5 7.6h7.1c2.1-2.7 4.4-5.2 6.8-7.6zm-14.5 116.1c1.5 1.4 3.1 2.8 4.7 4.1 0 0 11.1 6.9 4.9-1.1-.2-.3-.4-.5-.5-.7-2.3-2.8-4.5-5.7-6.5-8.7h-8.6c1.9 2.1 3.9 4.3 6 6.4zm202.1-55.6v4.1c.1 2.2.2 4.4.5 6.5h11c-4.4-9-10.2-10.4-11.5-10.6zm25.9-46.9h-8.1c-2 2.3-3.8 4.7-5.5 7.3.2.1.4.3.6.4 1.5-.1 6.8-1 13-7.7zm5-6.3c2.2-2.7 4.6-5.3 7.2-7.8h-4.2c-3.7 2.4-7.1 5.1-10.3 8.1h7.1c.1-.1.2-.2.2-.3zm-7.9 108.8c2.4 2.3 5 4.4 7.6 6.4 2.2 1.4 8 4.7 2.2-2.9-.5-.6-.8-1.1-.9-1.4-2.3-2.7-4.4-5.6-6.4-8.6h-8.6c2 2.2 4 4.4 6.1 6.5zm-14.8-19.7c1.3 2.5 2.7 4.8 4.3 7.2h9.5c-1.3-2.3-2.4-4.7-3.5-7.2h-10.3zm-6.8-19.3c.9 4.6 2.3 9 4 13.3h10.8c-1.5-4.3-2.6-8.8-3.4-13.3h-11.4zm-209.3-46.2H419c-1.1 2.3-2 4.7-2.9 7.2h11c.8-2.4 1.6-4.8 2.5-7.2zm67.2 218.4s.6 7.5 11.9 8.8v-19.1c-5.5 1.1-10 5.1-11.9 10.3zm23.9 17c.5 2.4 2.7 4.2 5.2 4.2h20.6c2.5 0 4.6-1.7 5.2-4.1v-27.8h-31v27.7zm229.4-118.3v21.3c4.6 0 8.4.2 11.6 1.1 4.7-3.1 17.3-13 15.9-31.8-8.4 4.6-17.7 7.8-27.5 9.4zM563.7 626.5c.5 2.4 2.7 4.1 5.2 4.1h20.6c2.5 0 4.6-1.8 5.2-4.1v-27.8h-31v27.8zm-138-222.2h-11.3c-1.1 4.4-1.7 8.8-2 13.4H424c.2-4.6.8-9.1 1.7-13.4zm310.4-57.1c-41.4 0-75.1 33.7-75.1 75.1s33.7 75.1 75.1 75.1c41.4 0 75.1-33.7 75.1-75.1s-33.7-75.1-75.1-75.1zM606.7 625.9c.3 2.7 2.5 4.8 5.3 4.8h20.6c2.4 0 4.4-1.6 5.1-3.8v-28.1h-31v27.1zm-209.2-56.4c-3.2-1.2-6.3-2.7-9.2-4.6-1.4 4.6-3 13.8.4 26.3 2.3-2 5.1-4.1 8-5.8s10.1-7.1 16.9-7.6c0 0 .7 6.5 2.1 12.9 1.6 6 5.8 17.6 15.6 27.5 0-.4-.1-.7-.1-1.1-1.8-29.5 6.8-46.7 10.1-52.1v-3.3c-8.9 6.9-18.8 10.5-28.9 10.5-4.9 0-10-.9-14.9-2.7zm15.3-138.2h11.5c-.3-2.5-.4-5-.4-7.6h-11.5v1.1c0 2.1.2 4.3.4 6.5zm-2 32.3c-.4.1-.8.1-1.1.1-.1 0-15-.2-25.7 10.3-7.7 7.6-11.6 19.1-11.5 34.1.2 23.7 11.9 43.8 29.2 50.2 13.6 5 28 .4 39.4-12.8.1-.1.2-.2.2-.3V496c-5-3.2-9.8-6.8-14.2-11-6.6-6.4-12.1-13.6-16.3-21.4zm238.9 161.7c0 2.9 2.4 5.3 5.3 5.3h20.6c2.4 0 4.3-1.5 5-3.6v-28.2h-31v26.5zm43 .7c.3 2.6 2.5 4.7 5.3 4.7h20.6c2.4 0 4.5-1.6 5.1-3.9v-28h-31V626zm66.5-83.6c-2-.9-6.2-.9-11.5-1-14.3 0-38.3-.1-80-15.8-38.3-14.4-53.2-46.9-58.9-72.2v-.2c-.1-.4-.2-.7-.2-1.1-.1-.3-.1-.5-.1-.8-3.6-21.2 9.4-29.9 9.4-29.9-.9 5.5 2.5 27.7 2.9 30.2 5.2 22.2 18.3 50.4 51.2 62.7 31.5 11.8 52.2 14.3 66.1 14.8v-19.9h-24.8c-22.9 0-44.5-8.7-61.1-24.4-16.6-15.9-26.1-37.1-26.8-59.9v-5.6c0-.7.1-1.5.1-2.3h-27.7c.1 1.7.1 3.3.1 5 0 46.4-36.5 84.5-82.3 87-.4.1-.8.1-1.3.1H488c-12.2 0-24-2.5-34.9-7.1v55c6.8-2.4 12.8-1.7 12.8-1.7-5.8 4.9-11.6 12.1-12.9 13.6l-1.1 1.4c-3.7 5.1-10.4 21.4-8.9 46 1.5 26 19.3 45.4 35.1 52.5l1.3.6.9 1.1c.1.2 14 17 39.7 33.5 23.7 15.2 62.6 33.3 113.6 33.3 75.7 0 124.3-22.3 140.4-64.5 2.8-7.4 2.6-14.8-.5-19.8-1.7-2.7-4.3-4.6-7.5-5.6-6.5-1.3-16.7 3.1-16.7 3.1-.3-6.8 8.1-13.6 9.7-14.8 3.4-3 5.1-6.9 4.7-8.9-.1-.4-.3-1.3-2.7-2-6-1.6-18 8.8-24.2 16.3l-1.8 2.2H512.1c-15.6 0-28.3-12.7-28.3-28.3s12.7-28.3 28.3-28.3h233.5c1.4 0 2.8-.8 3.3-1.9.7-1.4-.2-2.9-1.1-4-3.2-3.9-5-7.5-5.9-10.5-2.4.5-4.6.8-6.4 1-23.2 2.9-47.5-4.6-67-10.7-10.6-3.3-22.6-7-26.5-5.8-1.3.4-4.3 2.9-6.8 4.9-6.4 5.3-14.9 12.3-25.1 12.3-.9 0-1.8-.1-2.7-.2-9.2-1.1-15.7-6-18.4-13.8-3.7-10.7.9-24.9 7.4-31.4.3-.3.5-.5.8-.7 9.2-9 19.3-.9 19.3-.9-1.7.1-8.9 6.4-11.5 9.9-2.3 3.3-3.7 6.4-4.3 8.1-1.1 3.7-1.5 7.8-.4 11.1.7 2.1 2.4 5.1 8.5 5.8 6.3.8 12.9-4.7 18.7-9.5.5-.4 1-.8 1.4-1.2 3.3-3.1 8-8.6 7.8-14.7 0 0 20.8 9.7 33.5 14 .6.2 1.2.4 1.7.5 18.4 5.7 41.3 12.8 61.9 10.2 20.6-2.6 27.1-9.3 27.6-12.9.6-1.8-.8-3.2-2.2-3.9zm-324.8-78.6c-1.3-2.3-2.4-4.7-3.5-7.2h-10.3c1.3 2.5 2.7 4.9 4.3 7.2h9.5zm-20.6-26.5c.9 4.6 2.3 9 4 13.3h10.8c-1.5-4.3-2.6-8.7-3.4-13.3h-11.4zm226.5-32.1h.2c4-.1 7.2-3.4 7.2-7.4 0-4.1-3.3-7.4-7.4-7.4h-48.2c1.9 4.7 3.3 9.6 4.3 14.7h43.9zm-197.2-15c-4.6 9.7-7.2 20.6-7.2 32.1 0 41.4 33.7 75.1 75.1 75.1 41.4 0 75.1-33.7 75.1-75.1s-33.7-75.1-75.1-75.1c-29.3 0-54.7 16.9-67.1 41.4-.1.6-.4 1.1-.8 1.6zm-7.7 86.1c1.5 1.4 3.1 2.8 4.7 4.1 0 0 11.1 6.9 4.9-1.1-.2-.3-.4-.5-.5-.7-2.3-2.8-4.5-5.7-6.5-8.7h-8.6c1.9 2.1 3.9 4.3 6 6.4zm3.2-102.5h-8.4c-3 3.5-5.7 7.3-8 11.3h10c1.9-3.9 4-7.7 6.4-11.3zm11.3-13.6h-4.4c-3.3 2.3-6.5 4.8-9.5 7.6h7.1c2.1-2.7 4.4-5.2 6.8-7.6zm213.5 13.6h-8.1c-2 2.3-3.8 4.7-5.5 7.3.2.1.4.3.6.4 1.5-.1 6.8-1 13-7.7zm5-6.3c2.2-2.7 4.6-5.3 7.2-7.8h-4.2c-3.7 2.4-7.1 5.1-10.3 8.1h7.1c.1-.1.2-.2.2-.3zm-30.9 53.2v4.1c.1 2.2.2 4.4.5 6.5h11c-4.4-9-10.2-10.4-11.5-10.6zm-207.9-29.6H419c-1.1 2.3-2 4.7-2.9 7.2h11c.8-2.4 1.6-4.8 2.5-7.2zm209.3 46.2c.9 4.6 2.3 9 4 13.3h10.8c-1.5-4.3-2.6-8.8-3.4-13.3h-11.4zm6.8 19.3c1.3 2.5 2.7 4.8 4.3 7.2h9.5c-1.3-2.3-2.4-4.7-3.5-7.2h-10.3zm14.8 19.7c2.4 2.3 5 4.4 7.6 6.4 2.2 1.4 8 4.7 2.2-2.9-.5-.6-.8-1.1-.9-1.4-2.3-2.7-4.4-5.6-6.4-8.6h-8.6c2 2.2 4 4.4 6.1 6.5zm-247.7-45h11.5c-.3-2.5-.4-5-.4-7.6h-11.5v1.1c0 2.1.2 4.3.4 6.5zm337.3 76.9v21.3c4.6 0 8.4.2 11.6 1.1 4.7-3.1 17.3-13 15.9-31.8-8.4 4.6-17.7 7.8-27.5 9.4zM525.9 630.7h20.6c2.5 0 4.6-1.7 5.2-4.1v-27.8h-31v27.7c.5 2.4 2.6 4.2 5.2 4.2zm43 0h20.6c2.5 0 4.6-1.8 5.2-4.1v-27.8h-31v27.8c.5 2.3 2.6 4.1 5.2 4.1zm167.2-283.5c-41.4 0-75.1 33.7-75.1 75.1s33.7 75.1 75.1 75.1c41.4 0 75.1-33.7 75.1-75.1s-33.7-75.1-75.1-75.1zM612 630.7h20.6c2.4 0 4.4-1.6 5.1-3.8v-28.1h-31v27.1c.2 2.7 2.5 4.8 5.3 4.8zM425.7 404.3h-11.3c-1.1 4.4-1.7 8.8-2 13.4H424c.2-4.6.8-9.1 1.7-13.4zm71.1 205.2s.6 7.5 11.9 8.8v-19.1c-5.5 1.1-10 5.1-11.9 10.3zm-99.3-40c-3.2-1.2-6.3-2.7-9.2-4.6-1.4 4.6-3 13.8.4 26.3 2.3-2 5.1-4.1 8-5.8s10.1-7.1 16.9-7.6c0 0 .7 6.5 2.1 12.9 1.6 6 5.8 17.6 15.6 27.5 0-.4-.1-.7-.1-1.1-1.8-29.5 6.8-46.7 10.1-52.1v-3.3c-8.9 6.9-18.8 10.5-28.9 10.5-4.9 0-10-.9-14.9-2.7zm13.3-105.9c-.4.1-.8.1-1.1.1-.1 0-15-.2-25.7 10.3-7.7 7.6-11.6 19.1-11.5 34.1.2 23.7 11.9 43.8 29.2 50.2 13.6 5 28 .4 39.4-12.8.1-.1.2-.2.2-.3V496c-5-3.2-9.8-6.8-14.2-11-6.6-6.4-12.1-13.6-16.3-21.4zm348.4 78.8c-2-.9-6.2-.9-11.5-1-14.3 0-38.3-.1-80-15.8-38.3-14.4-53.2-46.9-58.9-72.2v-.2c-.1-.4-.2-.7-.2-1.1-.1-.3-.1-.5-.1-.8-3.6-21.2 9.4-29.9 9.4-29.9-.9 5.5 2.5 27.7 2.9 30.2 5.2 22.2 18.3 50.4 51.2 62.7 31.5 11.8 52.2 14.3 66.1 14.8v-19.9h-24.8c-22.9 0-44.5-8.7-61.1-24.4-16.6-15.9-26.1-37.1-26.8-59.9v-5.6c0-.7.1-1.5.1-2.3h-27.7c.1 1.7.1 3.3.1 5 0 46.4-36.5 84.5-82.3 87-.4.1-.8.1-1.3.1H488c-12.2 0-24-2.5-34.9-7.1v55c6.8-2.4 12.8-1.7 12.8-1.7-5.8 4.9-11.6 12.1-12.9 13.6l-1.1 1.4c-3.7 5.1-10.4 21.4-8.9 46 1.5 26 19.3 45.4 35.1 52.5l1.3.6.9 1.1c.1.2 14 17 39.7 33.5 23.7 15.2 62.6 33.3 113.6 33.3 75.7 0 124.3-22.3 140.4-64.5 2.8-7.4 2.6-14.8-.5-19.8-1.7-2.7-4.3-4.6-7.5-5.6-6.5-1.3-16.7 3.1-16.7 3.1-.3-6.8 8.1-13.6 9.7-14.8 3.4-3 5.1-6.9 4.7-8.9-.1-.4-.3-1.3-2.7-2-6-1.6-18 8.8-24.2 16.3l-1.8 2.2H512.1c-15.6 0-28.3-12.7-28.3-28.3s12.7-28.3 28.3-28.3h233.5c1.4 0 2.8-.8 3.3-1.9.7-1.4-.2-2.9-1.1-4-3.2-3.9-5-7.5-5.9-10.5-2.4.5-4.6.8-6.4 1-23.2 2.9-47.5-4.6-67-10.7-10.6-3.3-22.6-7-26.5-5.8-1.3.4-4.3 2.9-6.8 4.9-6.4 5.3-14.9 12.3-25.1 12.3-.9 0-1.8-.1-2.7-.2-9.2-1.1-15.7-6-18.4-13.8-3.7-10.7.9-24.9 7.4-31.4.3-.3.5-.5.8-.7 9.2-9 19.3-.9 19.3-.9-1.7.1-8.9 6.4-11.5 9.9-2.3 3.3-3.7 6.4-4.3 8.1-1.1 3.7-1.5 7.8-.4 11.1.7 2.1 2.4 5.1 8.5 5.8 6.3.8 12.9-4.7 18.7-9.5.5-.4 1-.8 1.4-1.2 3.3-3.1 8-8.6 7.8-14.7 0 0 20.8 9.7 33.5 14 .6.2 1.2.4 1.7.5 18.4 5.7 41.3 12.8 61.9 10.2 20.6-2.6 27.1-9.3 27.6-12.9.6-1.8-.8-3.2-2.2-3.9zm-109.5 82.9c0 2.9 2.4 5.3 5.3 5.3h20.6c2.4 0 4.3-1.5 5-3.6v-28.2h-31l.1 26.5zm48.2 5.4h20.6c2.4 0 4.5-1.6 5.1-3.9v-28h-31V626c.4 2.6 2.6 4.7 5.3 4.7z"
     fill="none"
     id="path4202" />
  <path
     d="M446.9 300.7h22.5v18.1h-22.5zm28.6 0H498v18.1h-22.5zm28.5 0h22.5v18.1H504zm-85.6 0h22.5v18.1h-22.5zm-57 0h22.5v18.1h-22.5zm186.5 0h-15.4v18.1H555v-18.1zm-212 0h19.5v18.1h-19.5zm65.3 0h-11.3v18.1h22.5v-18.1zm245.3 0H669v18.1h-22.5zm94 0H732v18.1h22.5v-18.1zm-37 0H726v18.1h-22.5zm57 0H783v18.1h-22.5zm36.6 0H789v18.1h18.8v-18.1zm-207.6 0H612v18.1h-22.5zm85.5 0h22.5v18.1H675zm-114 0h22.5v18.1H561zm57 0h22.5v18.1H618zM636.4 84.4c-2.1-.5-26.5-6.1-18.5 3.6 23.3 20.9 43.3 46.7 58.8 76.1 20.6 39 31.8 82 32.8 124.6h30.9v-16c0-10.1 8.2-18.3 18.3-18.3H788c-8-43.4-28.9-83.3-60.7-115.1-25.8-25.9-56.9-44.5-90.9-54.9zM352.1 288.7h49.2v-16.1c0-10 8.2-18.2 18.2-18.2h110.2c10 0 18.2 8.2 18.2 18.2v16.1h43.9c-1.9-75.3-40.2-143.8-102-183.8h-.3s-.3-.4-1-.9-1.5-.9-2.2-1.4c-4.2-2.2-12.5-4.3-25.3 2.1-16.1 9.4-31.1 21-44.6 34.5-1.2 1.2-2.4 2.5-3.6 3.7h68.7c2.3 0 4.4 1.3 5.4 3.4 1 2.1.7 4.6-.8 6.4l-7.9 9.5 7.9 9.5c1.8 2.2 1.8 5.4 0 7.7l-7.9 9.5 7.9 9.5c1.8 2.2 1.8 5.4 0 7.7l-7.9 9.5 7.9 9.5c1.5 1.8 1.8 4.3.8 6.4-1 2.1-3.1 3.4-5.4 3.4H360.1c-4.8 17.5-7.5 35.5-8 53.8zm400.4-16v16h39.2c-.2-7.5-.8-15-1.7-22.3h-31.2c-3.5 0-6.3 2.8-6.3 6.3zm-333-6.3c-3.4 0-6.2 2.8-6.2 6.2v16.1H536v-16.1c0-3.4-2.8-6.2-6.2-6.2H419.5zM581.4 75.1c-3.2-.1-6.3-.2-9.5-.2-28.6 0-56.4 5.4-82.2 15.8 69.1 41.5 112.1 116 114.1 198.1h93.8c-1-40.7-11.8-81.7-31.4-119-20.7-39.2-49.7-71.8-84.1-94.1-.3-.3-.5-.4-.7-.6z"
     fill="#E7AD00"
     id="path4204" />
  <path
     fill="#E78100"
     d="M352.1 288.7h49.2v-14.6H394c-18.6 0-15.6-21.2-15.3-23.1 1-5.3 2.3-10.6 3.7-15.8h-22.3c-4.8 17.2-7.5 35.2-8 53.5zM452.4 124c.7-.5 1.4-1.1 2.1-1.8l1.5-1.2c13-10.1 34.6-1.5 57.7 20.2 23.8 22.5 57.6 87.1 60.1 108.6s-10.1 24.3-10.1 24.3h-15.8v14.6h43.9c-1.9-75.3-40.2-143.8-102-183.8h-.3s-.3-.4-1-.9-1.5-.9-2.2-1.4c-.7-.4-1.5-.7-2.4-1l-1 .1c.2-.1.3-.2.5-.3-4.7-1.5-12.1-1.8-22.4 3.3-16.1 9.4-31.1 21-44.6 34.5-1.2 1.2-2.4 2.5-3.6 3.7H433c6.1-6.6 12.6-12.9 19.4-18.9z"
     id="path4206" />
  <path
     fill="#FCD472"
     d="M460.6 275.3h75.3v-2.7c0-3.4-2.8-6.2-6.2-6.2h-80.9c1.5 5.1 6.2 8.9 11.8 8.9zM589.5 300.7H612v7.9h-22.5zm-76 0c1.8 4.6 6.2 7.9 11.4 7.9h1.6v-7.9h-13zm47.5 0h22.5v7.9H561zm57 0h22.5v7.9H618zm-70.1 0h-15.4v7.9H555v-7.9zm192.6 0H732v7.9h22.5v-7.9zm-94 0H669v7.9h-22.5zm114 0H783v7.9h-22.5zm36.6 0H789v7.9h18.8v-7.9zm-122.1 0h22.5v7.9H675zm28.5 0H726v7.9h-22.5zM776.2 275.3h14.7c-.3-3-.6-6-.9-8.9h-25.5c1.3 5.1 6.1 8.9 11.7 8.9z"
     id="path4208" />
  <path
     d="M526.5 315.4H504v3.4h22.5v-3.4zm28.5 0h-22.5v3.4H555v-3.4zm-57 0h-22.5v3.4H498v-3.4zm85.5 0H561v3.4h22.5v-3.4zm-199.6-.5c-9.8-.7-17.1-2.1-22.5-3.7v7.7h22.5v-4zm228.1.5h-22.5v3.4H612v-3.4zm-199.6 0h-11.5c-3.9 0-7.6-.1-11-.2v3.6h22.5v-3.4zm28.5 0h-22.5v3.4h22.5v-3.4zm28.6 0H447v3.4h22.5v-3.4zm313.5 0h-22.5v3.4H783v-3.4zm-28.5 0H732v3.4h22.5v-3.4zm-418.6 3.4h19.5V309c-8.8-3.9-9.4-8.2-9.4-8.2l-.1-.1h-10v18.1zm304.6-3.4H618v3.4h22.5v-3.4zm148.5 3.4h18.8v-3.4H789v3.4zm-63-3.4h-22.5v3.4H726v-3.4zm-57 0h-22.5v3.4H669v-3.4zm28.5 0H675v3.4h22.5v-3.4zM709.5 288.7h30.9v-14.6h-31.7c.5 4.9.7 9.8.8 14.6z"
     fill="#E78100"
     id="path4210" />
  <g
     fill="#181830"
     id="g4212">
    <path
       d="M823.2 422.3c0-27-12.3-51.1-31.7-67.1 2.7-1.9 7.5-1.9 9.9-1.8 2.1.4 6.5 1.5 11.5 4.5 0 0-2.9-12.4-5.3-17.8l-.3-.6c-1.4-3.2-3-6.1-4.8-8.6h17.3v-42.1h-16.1c-1.5-59.7-25.5-115.6-67.8-158-43.8-43.8-102-67.9-164-67.9-61.9 0-120.2 24.1-164 67.9-42.4 42.4-66.3 98.3-67.8 158H324v42.1h19.9c-4.7 5.2-9.7 11.7-13.4 18.9l-.2.1s-8 19.3-15.3 24.3c0 0 16 1.8 36.3-5.8h.2c-6.5 15.1-13.1 33.1-15.4 49.4-1.2 6.9-4.3 22.6-7.8 26.3 0 0 12.6-5.7 21.4-10.8 4.1-2.2 9.7-6.3 17.9-13.2-.2.6-.5 1.2-.7 1.8-3.7 10.1-5.9 17.3-6.9 22.7 0 0-.1.3-.2 1-.2 1.3-.4 2.5-.4 3.6-.5 5.3-.7 14.3 2.1 21.6 0 0 7.3-11 13.5-11.6 2.3 0 4.6.3 5.9 1.2.1.1.2.1.3.3-1.9 1.3-3.8 2.9-5.6 4.6-10.2 9.9-15.3 24.4-15.2 42.9.1 19.7 6.9 37.1 18.1 48.8-2 4.4-8.6 22.2 2.1 47.4.8 1.9 2.5 3.2 4.5 3.6 2 .4 4.1-.4 5.5-1.9 3.5-3.9 9.3-8.8 13.8-11.2 2.8 10 10.5 29 30.6 41.5 6.9 20.7 22.2 35.8 37.2 43 3.6 4.2 17.5 19.4 41.2 34.7 25.1 16.2 66.4 35.5 120.5 35.5 46.5 0 83.6-8.1 110.1-24 19.9-11.9 33.8-28.1 41.5-48.2 4.2-11.1 3.6-22.2-1.6-30.5-1.6-2.6-3.7-4.8-6-6.5-.1-.2-.3-.3-.5-.5-2.5-2-2.7-4.2-2.5-5.6 1.2-3.3 1.5-6.6.8-9.7-.7-3.2-3.1-8.8-11.4-11-10.2-2.7-21.3 5.1-28.7 11.9V599h10c6.1 0 11.7-3.5 14.2-8.8 2.5-5.4 1.5-11.6-2.7-16.7-2-2.4-3-4.4-3.6-6 9.4-3.3 18.5-9.1 20-18.8.6-3.6-.1-7.1-1.8-10 10-7.9 21.5-23.7 17-46.7 20.9-16.3 34.5-41.5 34.5-69.7zm-29.6-80.5c-5.2.9-9.3 3.1-12.1 6.2-3.8-2.3-7.7-4.4-11.9-6.1-1.1-4.4-3.2-8-5.8-11.1H787c2.3 2.3 5.5 6.1 7.9 10.7-.3.1-.8.2-1.3.3zm-33.1-23v-18.1H783v18.1h-22.5zm47.3-18.1v18.1H789v-18.1h18.8zm-16.1-12h-39.2v-16c0-3.5 2.8-6.3 6.3-6.3H790c.9 7.4 1.5 14.8 1.7 22.3zM650 463.8c-1.6-2.3-3-4.7-4.3-7.2H656c1.1 2.4 2.2 4.8 3.5 7.2H650zm13.1 6c2 3 4.1 5.8 6.4 8.6.1.3.4.8.9 1.4 5.8 7.6-.1 4.2-2.2 2.9-2.6-1.9-5.2-4.1-7.6-6.4-2.2-2.1-4.2-4.2-6-6.5h8.5zm-25.6-49.1c1.3.2 7.1 1.6 11.5 10.5h-11c-.3-2.2-.4-4.3-.5-6.5v-4zm-41.1-15.5c-1-5.1-2.5-10-4.3-14.7h48.2c4.1 0 7.4 3.3 7.4 7.4 0 4-3.2 7.3-7.2 7.4h-44.1zm53.9 32.1c.8 4.6 2 9 3.4 13.3H643c-1.8-4.3-3.1-8.8-4-13.3h11.3zm.2-55.8c-.2-.1-.4-.3-.6-.4 1.7-2.5 3.5-5 5.5-7.3h8.1c-6.3 6.7-11.6 7.6-13 7.7zm10.6-13.7c3.2-3 6.7-5.7 10.3-8.1h4.2c-2.5 2.5-4.9 5.1-7.2 7.8l-.3.3h-7zm-23.8 10.7h-51c-14.9-25.6-42.5-42.9-74.1-43.3h-23.9c-8.9 0-17.7 1.3-26 3.9 4.9-3.6 11.7-6.5 19.8-8.2h29.6c19.7 2.1 52.8 7.1 82 18.2 4.1 1.9 15.1 8.2 18.4 20.6 0 0 8.2-18.7 9.5-31.2.2-1.4.4-2.8.4-4.2l28.5 11.5c1.4.6 3 .6 4.4 0l31.5-12.3c2.3-.7 6.6-1.8 13.8-2.8H743c3 1.2 6.9 3.2 10 6-5.1-1-10.3-1.6-15.7-1.6h-23.9c-31.4.1-60.4 16.6-76.1 43.4zm-198.7-4.7c-2.4 3.6-4.6 7.4-6.4 11.3h-10c2.3-4 5-7.8 8-11.3h8.4zm-2.6-6c3-2.8 6.2-5.3 9.5-7.6h4.4c-2.4 2.4-4.7 4.9-6.8 7.6H436zm-6.4 23.3c-.9 2.3-1.7 4.7-2.4 7.2h-11c.8-2.4 1.8-4.8 2.9-7.2h10.5zm-3.9 13.2c-.9 4.4-1.5 8.8-1.8 13.4h-11.5c.3-4.6.9-9 2-13.4h11.3zm-1.8 19.4c0 2.5.2 5.1.4 7.6h-11.5c-.3-2.2-.4-4.3-.5-6.5v-1.1h11.6zm1.3 13.6c.8 4.6 1.9 9 3.4 13.3h-10.8c-1.8-4.3-3.1-8.7-4-13.3h11.4zm5.7 19.3c1.1 2.5 2.2 4.9 3.5 7.2h-9.5c-1.6-2.3-3-4.7-4.3-7.2h10.3zm7.1 13.2c2 3 4.2 6 6.5 8.7.1.2.3.5.5.7 6.2 8-4.9 1.1-4.9 1.1-1.6-1.3-3.2-2.7-4.7-4.1-2.2-2.1-4.2-4.2-6-6.5h8.6zm-2.1-47.5c0-11.5 2.6-22.4 7.2-32.1.4-.4.7-1 .8-1.6 12.4-24.5 37.8-41.4 67.1-41.4 41.4 0 75.1 33.7 75.1 75.1s-33.7 75.1-75.1 75.1c-41.4 0-75.1-33.7-75.1-75.1zm-22.7-133.6v-16.1c0-3.4 2.8-6.2 6.2-6.2h110.2c3.4 0 6.2 2.8 6.2 6.2v16.1H413.2zm27.7 12v18.1h-22.5v-18.1h22.5zm107 0h7.1v18.1h-22.5v-18.1h15.4zm-21.4 0v18.1H504v-18.1h22.5zm-28.5 0v18.1h-22.5v-18.1H498zm-51.1 0h22.5v18.1h-22.5v-18.1zm162.3 30.1c1.5 3.4.2 7.9-1.2 11.2-10.1-4.5-20.8-8.2-31.4-11.2h32.6zm-19.7-12v-18.1H612v18.1h-22.5zm-6 0H561v-18.1h22.5v18.1zm34.5 0v-18.1h22.5v18.1H618zm42.5 12l-7.9 3.1-7.6-3.1h15.5zm-14-12v-18.1H669v18.1h-22.5zm57 0v-18.1H726v18.1h-22.5zm-6 0H675v-18.1h22.5v18.1zm34.5 0v-18.1h22.5v18.1H732zM636.4 84.4c34 10.4 65.1 29 90.9 54.8C759.2 171.1 780 211 788 254.3h-29.3c-10.1 0-18.3 8.2-18.3 18.3v16h-30.9c-1-42.6-12.3-85.6-32.8-124.6-15.5-29.4-35.5-55.2-58.8-76.1-8-9.6 16.4-4 18.5-3.5zm-64.5-9.6c3.2 0 6.3.1 9.5.2.2.2.4.4.7.5 34.3 22.3 63.4 54.9 84.1 94.1 19.6 37.3 30.5 78.3 31.4 119h-93.8c-2-82.1-45.1-156.5-114.1-198.1 25.7-10.2 53.5-15.7 82.2-15.7zM402.1 155h66.6l-.3.4-9.8 7.7 15 12.7-2.4 3-9.8 11.2 12.3 12.6-2.8 3.3-8.9 10.4 5.5 5.5 1.2 1.5H363.8c8.5-24.8 21.4-47.9 38.3-68.3zm-42 80.2h121.4c2.3 0 4.4-1.3 5.4-3.4 1-2.1.7-4.6-.8-6.4l-7.9-9.5 7.9-9.5c1.8-2.2 1.8-5.4 0-7.7l-7.9-9.5 7.9-9.5c1.8-2.2 1.8-5.4 0-7.7l-7.9-9.5 7.9-9.5c1.5-1.8 1.8-4.3.8-6.4-1-2.1-3.1-3.4-5.4-3.4h-68.7c1.2-1.2 2.4-2.5 3.6-3.7 13.5-13.5 28.5-25.1 44.6-34.5 12.8-6.3 21.1-4.3 25.3-2.1.7.5 1.5.9 2.2 1.4.7.5 1 .9 1 .9h.3c61.8 40 100.1 108.5 102 183.8h-43.9v-16.1c0-10-8.2-18.2-18.2-18.2H419.5c-10 0-18.2 8.2-18.2 18.2V289h-49.2c.5-18.6 3.2-36.6 8-53.8zm52.3 65.5v18.1h-22.5v-18.1h22.5zm-28.5 0v18.1h-22.5v-18.1h22.5zm-48 18.1v-18.1h19.5v18.1h-19.5zm35.8 128.5c1.4-8.1 7.5-25.3 15.2-42.9.5-.9 1-1.9 1.5-3.1 7.3-18 7.3-27.1 7.3-27.1-4.5 6.7-11.3 14.1-15.9 18.8-.3.2-.5.4-.8.6-10.7 10.2-23.6 21.4-31.2 26.7 2-15.6 8.7-33.7 15.3-48.6 3.7-7.7 11.9-21.8 11.9-21.8-7.4 4.2-15.5 5.6-18.5 5.9l-16.4 1.6c5-11.6 15.5-21.8 20.8-26.5h92.4c-6.2 5-10.5 11-11.8 17.7-5.1 3.2-9.9 6.9-14.4 11.1-16.6 15.9-26.1 37.1-26.8 59.9v5.6c.3 9.3 2 18.3 5.1 26.8-3.3.3-8.2 1.1-13.5 3.1-1.3-2.1-2.8-3.5-4.2-4.5-4.8-3.5-11.2-3.7-16-3.3zM441.3 565c-3.3 5.4-11.8 22.6-10.1 52.1 0 .4.1.7.1 1.1-9.8-9.9-14-21.5-15.6-27.5-1.5-6.4-2.1-12.9-2.1-12.9-6.8.5-16.9 7.6-16.9 7.6-2.9 1.7-5.7 3.8-8 5.8-3.4-12.5-1.8-21.7-.4-26.3 2.9 1.8 6 3.4 9.2 4.6 4.9 1.8 9.9 2.7 14.9 2.7 10.1 0 20-3.6 28.9-10.5v3.3zm0-19.8c-.1.1-.2.2-.2.3-11.4 13.2-25.8 17.9-39.4 12.8-17.3-6.4-29-26.6-29.2-50.2-.1-15 3.7-26.5 11.5-34.1 10.7-10.5 25.6-10.3 25.7-10.3.4 0 .8 0 1.1-.1 4.3 7.8 9.7 15 16.4 21.3 4.4 4.2 9.2 7.9 14.2 11v49.3zm320.4 1.3c-.6 3.6-7 10.3-27.6 12.9-20.7 2.6-43.6-4.5-61.9-10.2-.6-.2-1.2-.4-1.7-.5-12.7-4.3-33.5-14-33.5-14 .2 6.1-4.4 11.6-7.8 14.7-.5.4-.9.8-1.4 1.2-5.8 4.8-12.4 10.2-18.7 9.5-6.1-.8-7.8-3.7-8.5-5.8-1.1-3.3-.7-7.4.4-11.1.6-1.7 2-4.8 4.3-8.1 2.6-3.6 9.8-9.9 11.5-9.9 0 0-10.1-8-19.3.9-.3.2-.6.4-.8.7-6.5 6.5-11.1 20.7-7.4 31.4 2.7 7.8 9.2 12.7 18.4 13.8.9.1 1.8.2 2.7.2 10.2 0 18.8-7 25.1-12.3 2.4-2 5.4-4.5 6.8-4.9 3.8-1.3 15.9 2.5 26.5 5.8 19.5 6.1 43.8 13.6 67 10.7 1.8-.2 4-.6 6.4-1 .9 3 2.7 6.6 5.9 10.5.9 1.1 1.8 2.6 1.1 4-.5 1.1-1.9 1.9-3.3 1.9H512.1c-15.6 0-28.3 12.7-28.3 28.3s12.7 28.3 28.3 28.3h223.1l1.8-2.2c6.2-7.5 18.2-17.9 24.2-16.3 2.4.7 2.6 1.6 2.7 2 .4 2-1.2 5.9-4.7 8.9-1.6 1.2-10 8-9.7 14.8 0 0 10.2-4.4 16.7-3.1 3.2 1 5.8 2.9 7.5 5.6 3.2 5 3.4 12.4.5 19.8-16.1 42.2-64.6 64.5-140.4 64.5-51 0-89.9-18.1-113.6-33.3-25.8-16.5-39.6-33.3-39.7-33.5l-.9-1.1-1.3-.6c-15.8-7.1-33.6-26.5-35.1-52.5-1.5-24.6 5.2-40.9 8.9-46l1.1-1.4c1.3-1.6 7.1-8.8 12.9-13.6 0 0-5.9-.7-12.8 1.7v-54.8c10.9 4.7 22.7 7.1 34.9 7.1h26.3c.4 0 .9-.1 1.3-.1 45.8-2.5 82.3-40.5 82.3-87 0-1.7-.1-3.4-.1-5h27.7c0 .8-.1 1.5-.1 2.3v5.6c.6 22.7 10.1 44 26.8 59.9 16.5 15.8 38.2 24.4 61.1 24.4h24.8v19.9c-14-.5-34.7-3-66.1-14.8-32.9-12.3-46-40.5-51.2-62.7-.4-2.5-3.9-24.8-2.9-30.2 0 0-12.9 8.8-9.4 29.9 0 .3.1.5.1.8.1.4.2.7.2 1.1v.2c5.7 25.3 20.5 57.8 58.9 72.2 41.7 15.6 65.7 15.7 80 15.8 5.3 0 9.5 0 11.5 1 1.2.3 2.6 1.7 2.3 3.7zm-38.1 52.3v28c-.6 2.2-2.7 3.9-5.1 3.9h-20.6c-2.7 0-4.9-2-5.3-4.7v-27.2h31zm-42.9 0V627c-.7 2.1-2.7 3.6-5 3.6H655c-2.9 0-5.3-2.4-5.3-5.3v-26.6h31zm-43 0v28.1c-.7 2.2-2.7 3.8-5.1 3.8H612c-2.8 0-5-2.1-5.3-4.8v-27.1h31zm-43 0v27.8c-.5 2.4-2.7 4.1-5.2 4.1h-20.6c-2.5 0-4.6-1.8-5.2-4.1v-27.8h31zm-43 0v27.8c-.6 2.3-2.7 4.1-5.2 4.1h-20.6c-2.6 0-4.7-1.8-5.2-4.2v-27.7h31zm-43 .3v19.1c-11.3-1.2-11.9-8.8-11.9-8.8 1.9-5.1 6.4-9.1 11.9-10.3zm253.1-68.5c-3.3-1-7-1.1-11.6-1.1v-21.3c9.8-1.6 19.1-4.8 27.5-9.4 1.4 18.8-11.2 28.8-15.9 31.8zm-25.7-33.2c-41.4 0-75.1-33.7-75.1-75.1s33.7-75.1 75.1-75.1c41.4 0 75.1 33.7 75.1 75.1s-33.7 75.1-75.1 75.1z"
       id="path4214" />
    <circle
       cx="574.9"
       cy="701.7"
       r="6"
       id="circle4216" />
    <circle
       cx="596.1"
       cy="682"
       r="6"
       id="circle4218" />
    <circle
       cx="652.6"
       cy="667.8"
       r="6"
       id="circle4220" />
    <circle
       cx="555.3"
       cy="682"
       r="6"
       id="circle4222" />
    <circle
       cx="610.6"
       cy="716.2"
       r="6"
       id="circle4224" />
    <circle
       cx="682.8"
       cy="716.2"
       r="6"
       id="circle4226" />
    <circle
       cx="630.3"
       cy="690.9"
       r="6"
       id="circle4228" />
    <circle
       cx="660.5"
       cy="698"
       r="6"
       id="circle4230" />
    <circle
       cx="682.8"
       cy="677.3"
       r="6"
       id="circle4232" />
    <circle
       cx="521.3"
       cy="678.9"
       r="6"
       id="circle4234" />
    <path
       d="M396.8 483.8c-1.3 5-7.8 18.7 4.4 31.1 0 0-12.8 7.7-7 24.6 0 0 10.6-18.7 20.6-17.2 9.2 1.4 11.7 2.6 15 .9s4.2-6 1.1-9.4c-3.1-3.4-6.6-.4-16.8-4.6-11-4.4-17.3-25.4-17.3-25.4zm251.9 166.1H505.9c-17 0-30.8-15.3-30.8-34.1s13.8-34.1 30.8-34.1c.4 0 .9-.1 1.3-.1 1.1.1 2.3.1 3.6.1 25 0 23-11.9 23-11.9h-28c-23.6 0-42.8 20.7-42.8 46.1s19.2 46.1 42.8 46.1H628c.4 0 .9 0 1.3-.1 21.1-1.3 19.4-12 19.4-12zm60.4 26.1c2-3 5-5 8.5-5.7 2.4-.5 5 0 5.8.1h.3c.1 0 .2.1.3.1 1.9.7 9 3.8 4.7 14 0 0-2.1-3.8-6.2-4.9-.4-.1-.7-.2-1.1-.3-.8-.2-1.7-.2-2-.1-1.1.2-2 .8-2.6 1.7-.6.9-.8 2-.6 3.1 1.2 5.9 6.9 9.7 12.8 8.6 7.6-1.5 12.5-8.9 11.1-16.4-1.5-7.6-8.9-12.5-16.4-11.1-.3.1-.7.1-1 .1-6.4.6-11.2-10-11.2-10 3.1 1.2 10.1.8 11.9.6 12-1.6 23.4 6.5 25.8 18.6 2.5 12.6-5.8 24.8-18.4 27.3-1.3.3-2.6.4-3.9.4-9.4 0-17.9-6.7-19.8-16.3-.7-3.2 0-6.8 2-9.8zM511 483.3c-33.7 0-61.1-27.4-61.1-61.1s27.4-61.1 61.1-61.1 61.1 27.4 61.1 61.1-27.5 61.1-61.1 61.1zm0-116.1c-30.4 0-55.1 24.7-55.1 55.1s24.7 55.1 55.1 55.1 55.1-24.7 55.1-55.1-24.8-55.1-55.1-55.1zm225.1 116.1c-33.7 0-61.1-27.4-61.1-61.1s27.4-61.1 61.1-61.1 61.1 27.4 61.1 61.1-27.4 61.1-61.1 61.1zm0-116.1c-30.4 0-55.1 24.7-55.1 55.1s24.7 55.1 55.1 55.1 55.1-24.7 55.1-55.1-24.7-55.1-55.1-55.1z"
       id="path4236" />
  </g>
  <g
     id="g4238">
    <path
       fill="#181830"
       d="M259.6 546.8c-.8 0-1.6-.3-2.2-1-.9-1-1.1-2.6-.3-3.7l7.3-10.8-8.4-1.2c-1.2-.2-2.2-1.1-2.5-2.3-.3-1.2.2-2.4 1.2-3.2l8.6-6-5.3-9.1c-.6-1.1-.5-2.4.2-3.4.8-1 2-1.4 3.2-1l9.8 2.9 3.9-13.5c.4-1.3 1.5-2.2 2.9-2.2 1.3 0 2.5.9 2.9 2.1l3.9 12.7 10.8-6.2c1.1-.7 2.6-.5 3.6.4s1.2 2.4.6 3.5l-6.9 13.6 12.9 10.9c1 .9 1.4 2.3.8 3.6-.6 1.2-1.9 1.9-3.2 1.7l-13-2.3.7 9.4c.1 1.2-.6 2.4-1.7 2.9s-2.4.4-3.3-.5l-8.2-7.5-16.9 9.6c-.4.5-.9.6-1.4.6zm4.8-21.6l5.6.8c1 .1 1.9.8 2.3 1.8.4.9.3 2-.3 2.9l-2.9 4.2 7.7-4.4c1.1-.6 2.5-.5 3.5.4l4.2 3.8-.4-5.6c-.1-.9.3-1.8 1-2.5.7-.6 1.6-.9 2.5-.7l5.9 1-6.3-5.3c-1.1-.9-1.4-2.4-.7-3.6l3.4-6.7-5.4 3.1c-.8.5-1.8.5-2.6.2-.9-.3-1.5-1-1.8-1.9l-2-6.7-2 6.7c-.2.8-.7 1.4-1.4 1.8-.7.4-1.5.5-2.3.2l-5.4-1.6 2.9 4.9c.8 1.4.4 3.1-.9 4l-4.6 3.2z"
       id="path4240" />
    <path
       fill="#E7AD00"
       d="M287.7 526l5.9 1-6.3-5.3c-1.1-.9-1.4-2.4-.7-3.6l3.4-6.7-5.4 3.1c-.8.5-1.8.5-2.6.2-.9-.3-1.5-1-1.8-1.9l-2-6.7-2 6.7c-.2.8-.7 1.4-1.4 1.8-.7.4-1.5.5-2.3.2l-5.4-1.6 2.9 4.9c.8 1.4.4 3.1-.9 4l-4.7 3.2 5.6.8c1 .1 1.9.8 2.3 1.8.4.9.3 2-.3 2.9l-2.9 4.2 7.7-4.4c1.1-.6 2.5-.5 3.5.4l4.2 3.8-.4-5.6c-.1-.9.3-1.8 1-2.5.7-.6 1.7-.9 2.6-.7zM119.4 648.1c.5 0 .9.1 1.4.3.8.4 1.4 1.2 1.6 2.1l2 10.3 5.7-7.4c.9-1.2 2.5-1.5 3.8-.8l4.8 2.7-5.4-8.7c-.4-.7-.6-1.5-.4-2.3s.7-1.5 1.4-1.9l5-2.8-5.5-1.4c-1-.2-1.8-1-2.1-2s-.1-2.1.5-2.9l3.3-3.9-8.1 3.6c-1.2.5-2.6.2-3.4-.7l-3.8-4.2-.1 5.7c0 .8-.4 1.6-.9 2.1-.6.6-1.4.9-2.2.8l-8.5-.3 5.7 5.4c1 .9 1.2 2.4.6 3.6l-3.3 6 6.7-3c.3-.3.8-.3 1.2-.3z"
       id="path4242" />
    <path
       fill="#181830"
       d="M122.7 670.8c-.2 0-.5 0-.7-.1-1.1-.3-2-1.2-2.2-2.3l-2.6-13-11.4 5.1c-1.2.5-2.6.2-3.4-.7s-1.1-2.3-.4-3.5l6.4-11.8-9.7-9.3c-.9-.9-1.2-2.2-.7-3.3s1.6-1.9 2.9-1.8l13.4.5.2-10.2c0-1.2.8-2.3 2-2.8s2.5-.1 3.3.8l7.4 8.3 17.8-7.8c1.3-.6 2.8-.2 3.6.9.8 1.1.8 2.7-.1 3.7l-8.4 10.1 8.2 2.1c1.2.3 2.1 1.3 2.2 2.5.2 1.2-.4 2.4-1.5 3l-9 4.8 9.9 15.9c.7 1.2.6 2.7-.4 3.7-.9 1-2.4 1.2-3.6.6l-12.7-7.1-8.2 10.5c-.5.7-1.4 1.2-2.3 1.2zm-3.3-22.7c.5 0 .9.1 1.4.3.8.4 1.4 1.2 1.6 2.1l2 10.3 5.7-7.4c.9-1.2 2.5-1.5 3.8-.8l4.8 2.7-5.4-8.7c-.4-.7-.6-1.5-.4-2.3s.7-1.5 1.4-1.9l5-2.8-5.5-1.4c-1-.2-1.8-1-2.1-2s-.1-2.1.5-2.9l3.3-3.9-8.1 3.6c-1.2.5-2.6.2-3.4-.7l-3.8-4.2-.1 5.7c0 .8-.4 1.6-.9 2.1-.6.6-1.4.9-2.2.8l-8.5-.3 5.7 5.4c1 .9 1.2 2.4.6 3.6l-3.3 6 6.7-3c.3-.3.8-.3 1.2-.3zm64.2-108.9l89.2 87.9-23.7 6.5 53.7 87-88.8-83.5 24.8-7.6-55.2-90.3m0-12c-2.6 0-5.3.9-7.5 2.6-4.7 3.8-5.9 10.5-2.8 15.7l47.2 77.1-10 3.1c-4.1 1.3-7.2 4.6-8.1 8.8-1 4.2.4 8.5 3.5 11.4l88.7 83.4c2.3 2.2 5.3 3.3 8.2 3.3 2.7 0 5.4-.9 7.6-2.7 4.7-3.8 5.8-10.5 2.6-15.6L267.7 641l8.3-2.3c4.1-1.1 7.4-4.4 8.4-8.5 1.1-4.2-.1-8.6-3.2-11.6l-89.2-88c-2.3-2.3-5.4-3.4-8.4-3.4z"
       id="path4244" />
    <path
       fill="#E7AD00"
       d="M249 633.5l23.7-6.5-89.1-87.8 55.2 90.3-24.8 7.6 88.7 83.4z"
       id="path4246" />
    <g
       id="g4248">
      <path
         fill="#181830"
         d="M968 544.9l-37.1 115.9-17.6-19.1-57.7 88.7 40.9-118.3 16.1 18.6 55.4-85.8m0-12c-4 0-7.8 2-10.1 5.5l-46.7 72.4-5.6-6.5c-2.3-2.7-5.6-4.2-9.1-4.2-.8 0-1.5.1-2.3.2-4.2.8-7.7 3.8-9.1 7.9l-40.9 118.3c-2 5.7.6 12 6.1 14.7 1.7.8 3.5 1.2 5.3 1.2 3.9 0 7.8-2 10.1-5.5l49.3-75.8 7.1 7.7c2.3 2.5 5.5 3.9 8.8 3.9.9 0 1.7-.1 2.6-.3 4.2-.9 7.5-4 8.8-8.1l37.1-115.9c1.8-5.7-.9-11.9-6.3-14.5-1.6-.6-3.4-1-5.1-1z"
         id="path4250" />
      <path
         fill="#E7AD00"
         d="M930.9 660.8L968 544.9l-55.4 85.9-16-18.6-40.9 118.3 57.7-88.7z"
         id="path4252" />
      <path
         fill="#181830"
         d="M883.5 546.6c-1.1 0-2.1-.6-2.7-1.6l-4.6-9-16.2 9.4c-1.2.7-2.7.5-3.6-.5-1-1-1.1-2.5-.4-3.6l7.4-12.5-10.3-8.5c-.9-.7-1.3-2-1-3.1.3-1.1 1.2-2 2.4-2.2l13.1-2.2-4.8-11.5c-.5-1.2-.2-2.6.8-3.4 1-.8 2.4-1 3.5-.3l11.6 6.8 9.6-9.4c.9-.9 2.2-1.1 3.4-.6 1.1.5 1.8 1.7 1.7 2.9l-.9 13.3 10.2.5c1.2.1 2.3.9 2.7 2s0 2.5-.9 3.3l-8.5 7.1 7.3 18c.5 1.3.1 2.8-1.1 3.6s-2.7.7-3.7-.2l-9.8-8.7-2.3 8.2c-.3 1.2-1.4 2-2.6 2.2h-.3zm-6.1-17.7c.3 0 .6 0 .8.1.8.2 1.5.8 1.8 1.5l2.6 5 1.5-5.4c.3-1 1.1-1.8 2-2.1 1-.3 2.1-.1 2.8.6l3.8 3.4-3.3-8.2c-.5-1.2-.1-2.6.8-3.4l4.3-3.7-5.7-.3c-.8 0-1.6-.4-2.1-1s-.8-1.4-.8-2.2l.6-8.5-5.6 5.5c-1 1-2.4 1.1-3.6.5l-5.9-3.4 2.8 6.8c.3.8.3 1.8-.2 2.6-.4.8-1.2 1.4-2.1 1.5l-10.3 1.7 7.2 6c1.1.9 1.4 2.6.7 3.8l-2.8 4.7 8.9-5.2c.8-.2 1.3-.3 1.8-.3z"
         id="path4254" />
      <path
         fill="#E7AD00"
         d="M877.4 528.9c.3 0 .6 0 .8.1.8.2 1.5.8 1.8 1.5l2.6 5 1.5-5.4c.3-1 1.1-1.8 2-2.1 1-.3 2.1-.1 2.8.6l3.8 3.4-3.3-8.2c-.5-1.2-.1-2.6.8-3.4l4.3-3.7-5.7-.3c-.8 0-1.6-.4-2.1-1s-.8-1.4-.8-2.2l.6-8.5-5.6 5.5c-1 1-2.4 1.1-3.6.5l-5.9-3.4 2.8 6.8c.3.8.3 1.8-.2 2.6-.4.8-1.2 1.4-2.1 1.5l-10.3 1.7 7.2 6c1.1.9 1.4 2.6.7 3.8l-2.8 4.7 8.9-5.2c.8-.2 1.3-.3 1.8-.3z"
         id="path4256" />
      <path
         fill="#181830"
         d="M1009.1 706.4c-.5 0-.9-.1-1.4-.3-1.2-.6-1.9-2-1.6-3.3l2.7-12.9-9.4.5c-1.2.1-2.4-.6-2.9-1.8-.5-1.1-.3-2.4.6-3.3l7.7-8-9-17.2c-.6-1.2-.4-2.7.7-3.7 1.1-.9 2.6-1 3.7-.2l10.6 7.6 1.5-8.4c.2-1.2 1.1-2.2 2.4-2.4 1.2-.2 2.4.3 3.1 1.3l5.7 8.8 9.2-5c1.1-.6 2.4-.5 3.4.3.9.8 1.3 2.1.9 3.2l-3.2 9.7 13.3 4.4c1.3.4 2.1 1.6 2.1 2.9s-.9 2.5-2.2 2.8l-12.8 3.5 5.9 11c.6 1.2.4 2.6-.5 3.5-.9.9-2.4 1.1-3.6.5l-13.3-7.3-11.3 12.5c-.7.9-1.5 1.3-2.3 1.3zm3.4-22.7c.9 0 1.7.4 2.3 1 .6.7.8 1.6.7 2.6l-1.2 5.9 5.5-6.1c.9-1 2.4-1.3 3.7-.6l6.6 3.6-2.9-5.4c-.4-.8-.5-1.8-.1-2.6s1.1-1.5 2-1.7l6.7-1.8-6.6-2.2c-.8-.2-1.4-.8-1.7-1.5-.4-.7-.4-1.5-.2-2.3l1.8-5.4-5 2.7c-1.4.7-3.1.3-3.9-1l-3.1-4.7-1 5.6c-.2 1-.9 1.9-1.8 2.3-1 .4-2 .3-2.9-.3l-4.1-3 4.1 7.8c.6 1.1.4 2.6-.5 3.5l-3.9 4.1 5.7-.3c-.3-.2-.2-.2-.2-.2z"
         id="path4258" />
      <path
         fill="#E7AD00"
         d="M1027.3 674.8c-.4-.7-.4-1.5-.2-2.3l1.8-5.4-5 2.7c-1.4.7-3.1.3-3.9-1l-3.1-4.7-1 5.6c-.2 1-.9 1.9-1.8 2.3-1 .4-2 .3-2.9-.3l-4.1-3 4.1 7.8c.6 1.1.4 2.6-.5 3.5l-3.9 4.1 5.7-.3h.1c.9 0 1.7.4 2.3 1 .6.7.8 1.6.7 2.6l-1.2 5.9 5.5-6.1c.9-1 2.4-1.3 3.7-.6l6.6 3.6-2.9-5.4c-.4-.8-.5-1.8-.1-2.6s1.1-1.5 2-1.7l6.7-1.8-6.6-2.2c-1-.4-1.6-1-2-1.7z"
         id="path4260" />
    </g>
  </g>
  <g
     id="g4262">
    <path
       style="font-style:normal;font-weight:normal;font-size:40px;line-height:125%;font-family:sans-serif;letter-spacing:0px;word-spacing:0px;fill:#181830;fill-opacity:1;stroke:none;stroke-width:1px;stroke-linecap:butt;stroke-linejoin:miter;stroke-opacity:1"
       d="m 541.1875,1075.2715 c -7.74856,-0.038 -19.00268,-0.2623 -21.80664,8.9414 -1.54344,14.5742 2.23214,29.8852 -1.29883,43.5879 -4.63268,-0.7859 -1.62669,-7.0761 -2.38626,-10.1973 0.078,-13.9142 -0.0271,-27.8286 -0.15671,-41.7422 -11.47461,0 -22.94922,0 -34.42383,0 -0.58911,1.7194 1.9287,9.1079 -1.09765,6.0235 -13.61112,-9.2785 -30.8745,-4.9856 -46.20657,-5.8837 -7.79849,-0.9187 -10.7518,8.1887 -9.37351,14.4032 0.18922,23.0863 0.0354,46.2309 0.0645,69.3398 18.54651,-3.4111 39.43801,3.9064 56.32813,-7.0507 2.69119,-1.6221 4.85815,-4.5578 6.58789,-6.752 13.5243,19.2482 46.20869,19.1151 59.81641,0.029 0.0286,4.1132 -1.41508,11.1184 2.99609,12.9082 37.99042,-0.5899 76.04853,1.0748 113.99609,-0.8164 9.23419,-1.7262 17.85191,-6.6563 23.96094,-13.8008 1.43843,4.7673 -3.56149,15.973 4,14.6172 25.99089,0 51.98177,0 77.97266,0 0.21083,-3.5427 0.30764,-7.0918 0.25195,-10.6406 2.901,6.3869 9.14188,12.3527 16.72851,10.6621 8.11316,0.165 19.30223,1.602 24.12696,-6.7012 0.95032,-5.3976 -5.2853,-8.4725 -6.70508,-13.2422 -3.40763,-5.5878 -7.03223,-11.0378 -10.54297,-16.5605 12.10263,-12.031 9.56231,-36.6036 -7.21484,-43.0938 -14.3939,-5.9066 -30.45127,-2.8796 -45.35157,-2.9726 -2.48028,2.3912 -5.55738,-1.3187 -8.8496,-0.7305 -9.98769,0.329 -19.95601,0.6841 -29.96485,0.1953 -4.78065,-0.049 -9.56142,0.037 -14.33789,0.2383 -0.64883,3.7175 0.42326,9.8395 -0.32422,12.1797 -11.56364,-12.6303 -30.00743,-13.0778 -45.87283,-12.4129 -6.78153,0.1483 -13.57058,0.3099 -20.34787,-0.075 -0.15203,17.1925 0.20132,34.387 -0.13672,51.5781 -3.90974,-0.4084 -7.86025,0.01 -11.73633,0.1758 0,-17.2044 0,-34.4088 0,-51.6133 -20.98958,0 -41.97916,0 -62.96875,0 0.0929,1.5261 -3.46015,-1.2332 -4.64169,-0.6395 l -0.99911,0.042 -0.0858,0 z m 228.13281,28.5879 c 1.14388,4.8645 -6.31931,-0.5178 0,0 z m -30.51562,1.457 c -1.08484,1.9172 -0.48972,-1.7114 0,0 z m -82.73047,2.1445 c 9.08838,2.067 9.15144,17.91 -0.15039,19.7618 0.65534,-6.5644 -0.16868,-13.2541 0.15039,-19.7618 z m -171.57813,4.9024 c 2.20942,6.3491 -7.8264,-0.2888 0,0 z m 253.69336,16.0469 c 2.41805,1.8573 -1.33856,3.8316 -1.75195,0.9746 0.61213,0.1857 1.11834,-1.5502 1.75195,-0.9746 z m -280.13281,1.0117 c -2.43638,10.8652 -2.28006,-4.7751 0,0 z"
       id="text4274-4"
       inkscape:connector-curvature="0" />
    <path
       fill="#181830"
       d="M199.2 821.3h15v16.1h-15zm903.4 270.2c-1.5-2.8-6.6-17.7-11.3-92.4-2.5-39.8-4.4-91.2-5.1-139.1 10.6-3.9 14.8-14.3 14.2-23.2v-57.5c0-10.6-4.6-16.2-8.5-19.1-4.7-3.5-9.8-4-12.4-4-5.9 0-11.3 2.4-14.8 4.4-11 5.8-24.7 11.5-40.7 16.8-.3.1-.7.2-1 .4-7.3 2.9-11.4 8.7-13 14.6-1.1.4-2.3.8-3.5 1.2-.4.1-.7.2-1 .4-2 .8-3.8 1.8-5.4 3-.3-.4-.6-.8-1-1.2-3.8-4.3-9.4-6.8-15.3-6.8-2.4 0-4.4.4-5.8.8-14.4 3.5-30 6.8-46.4 9.8-.8.2-1.6.4-2.4.7-4.8 1.6-9.6 5.2-12.5 10.5-1-1.9-2.3-3.6-4-4.9-2.8-2.2-6.2-3.5-9.8-3.5-1 0-2 .1-3 .3-.6.1-3.8.7-5 .9-27.1 4.4-56.2 8.1-86.7 11-2.6.2-5 1.1-7.2 2.6l-.9.6c-2.3 1.8-4.1 4.3-5.1 7-3.8-5.1-10-8.4-17.2-8.4h-1.1c-.4 0-.9 0-1.3.1-13.4 1.1-27.3 2.1-41.3 2.9h-1.7c-11.1.4-17.1 4.8-20.1 8.4-2.5 3-3.6 6.2-4.1 8.6-.3.1-.7.2-1 .2-2.5-9-10.7-15.2-21-15.2h-.8c-14.6.5-29.5.9-44.4 1.1h-.6c-6 0-14.2 1.4-19.5 8-.9 1.1-1.6 2.3-2.2 3.5-1.9-6.5-7.8-11.3-14.9-11.3h-3.3c-20.3 0-40.7-.3-60.6-.9 0 0-1.9-.1-2-.1-4.1 0-7.9 1.6-10.8 4.4-3 2.9-4.7 7-4.7 11.2v.6h-1.6c-2.1 0-4.2.4-6.2 1.2-.3-10-8.4-17.7-19.5-18.6H494c-15.9-.8-31.7-1.8-47.1-2.9h-.3c-2.8-.2-5.3-.4-6-.5h-.1c-.4 0-.9-.1-1.4-.1-3.9 0-7.6 1.5-10.5 4.1-3.2 2.9-5 7.1-5 11.4v.7h-.1c-.5 0-1-.1-1.4-.1-3.1 0-6.1.9-8.7 2.5V832c0-9.1-6.5-16.8-16.4-19.2-.9-.3-1.9-.5-2.9-.6-16.2-1.8-32-3.8-47.1-6h-.1c-2-.3-4.5-.8-5.5-1-1.2-.3-2.4-.4-3.6-.4-3.5 0-6.9 1.2-9.6 3.3-3.8 3-5.9 7.4-5.9 12.2v.7c-.5-.1-1-.1-1.6-.1-1 0-2 .1-3.1.3V814c0-7.7-5.5-14.2-13.2-15.4-1.2-.2-5.4-.8-10.2-1.7-12-2.4-23.7-5-34.7-7.7-5.9-1.7-11.7-3.9-11.9-4-1.8-.7-3.7-1-5.6-1-3.1 0-6.2.9-8.8 2.7-1.5 1-2.7 2.3-3.8 3.7-1.2-5.7-5.6-10.4-11.5-11.8-.8-.2-2.3-.7-3.1-.9-.1 0-.3-.1-.5-.1-22.3-7.4-39.9-15.3-52.2-23.4-4.9-3.5-10.4-7.6-11.4-8.4-2.7-2.1-6.1-3.2-9.5-3.2-2.4 0-4.7.6-6.9 1.6-5.3 2.6-8.7 8.1-8.7 13.9v.7c-.5-.1-1-.1-1.6-.1-2.5 0-5 .6-7.3 1.7-5.6 2.8-9.2 8.6-9.2 14.8v16.7l3.3 329.9c.1 6.3 3.8 12.2 9.6 14.8 2.2 1 4.6 1.5 7 1.5 3.8 0 7.6-1.3 10.5-3.8 2.9-2.4 6.5-4.9 10.5-7.4 4.2-2.6 7.1-7 7.7-11.9 2.6-2 5.6-4.1 8.9-6.1 4.6-2.9 7.5-8 7.4-13.4l-2.7-207.2c.5.1 1 .3 1.5.4.5.1.9.3 1.4.4l.9.2.7.2c.4.1.9.2 1.3.3 2.8.6 6.4 1.4 6.4 1.4 1.2.3 2.4.4 3.6.4 3.8 0 7.4-1.3 10.4-3.6 3.9-3.2 6.2-7.9 6.2-12.9v-1.6h.6c2 0 3.9-.4 5.7-1.1v207.9c0 5.1 2.4 10 6.5 13.1 2.9 2.2 6.4 3.4 10.1 3.4 1.4 0 2.9-.2 4.3-.6 3.7-1 7.6-2 12-3.1 7.4-1.8 12.6-8.4 12.6-16.1v-1c1.1-.3 2.3-.6 3.5-.9 1 2.6 2.7 4.9 4.9 6.7 2.9 2.4 6.7 3.7 10.5 3.7 1.1 0 2.2-.1 3.2-.3 3.7-.7 7.6-1.5 12.1-2.3 7.8-1.5 13.5-8.3 13.5-16.3v-1.2l3-.6c.8 3.5 2.8 6.7 5.6 9.1 3 2.4 6.7 3.8 10.5 3.8 1.1 0 2.1-.1 3.2-.3h.1c2.5-.5 11.2-2.2 19.4-3.6 10.9-1.5 22-2.9 33.1-4.1h.1c10.9-.8 22.6-7.3 24.5-19.6 1.6-.5 3.1-1.2 4.6-1.9v.3c0 4.6 1.9 9 5.3 12.1 3.1 2.8 7 4.4 11.2 4.4.4 0 .9 0 1.3-.1 4.4-.3 8.4-.6 12.2-.9 8.6-.6 15.4-7.9 15.4-16.5v-1.5c.6 0 1.1-.1 1.7-.1 5.1-.4 9.5-3.2 12.1-7.3 2.5 5.9 5.3 10.9 8.2 15.2 3.1 4.5 8.2 7.2 13.7 7.2h.7c4.9-.2 9.3-.4 13.5-.5 3.6-.1 7-1.4 9.7-3.6 2.8 2.1 6.2 3.2 9.8 3.2h1.2c.2 0 .7 0 1.3-.1 20-.6 40.4-.9 60.7-.9h3.3c6.8 0 12.6-4.1 15.2-9.9 3.6 5.8 10.1 10.1 19 10.1h.8c15.7.2 31.4.6 46.7 1.1h1.4c6.4-.2 12.1-2.6 16.2-6.9 1.8-1.9 3.1-4 4-5.9 1 7.8 7.5 13.9 15.5 14.3 4.2.2 8.3.5 12.2.7h1c4.2 0 8.3-1.6 11.3-4.5 3.3-3.1 5.2-7.5 5.2-12v-1.6h.6c.6 0 1.1 0 1.7-.1v4.1c0 8.6 6.7 15.8 15.2 16.5 3.9.3 8 .7 12.2 1 .5 0 .9.1 1.4.1 4.1 0 8.1-1.5 11.2-4.3 3.4-3.1 5.4-7.6 5.4-12.2v-1.6h.6c3.9 0 7.6-1.5 10.5-4.1 3.2-2.9 5-7.1 5-11.5V873c6.5-.6 13.1-1.3 19.7-2.1v184.9c0 8.3 6.2 15.4 14.5 16.4 3.9.5 7.9 1 12.2 1.6.7.1 1.5.1 2.2.1 4 0 7.9-1.5 10.9-4.1 3.6-3.1 5.6-7.7 5.6-12.4v-1.6h.6c3.8 0 7.4-1.4 10.2-3.8 3.4-2.9 5.3-7.2 5.3-11.7V862.7c.8-.1 1.6-.3 2.4-.4 2.2-.3 5.4-.8 6.1-.9 2.7-.5 5.1-1.5 7.2-3.1v199.5c-.2 2.2-.1 5.2.8 8.6 2.3 8.6 9 14.7 17.9 16.2.4.1.8.1 1.2.2 15.7 2.9 30.7 6.1 44.5 9.5.3.1.5.1.8.2.9.2 2.8.5 5.2.5 5.1 0 9.9-1.5 13.8-4.4 4.6-3.4 7.5-8.4 8.4-14.2.9-.2 1.7-.5 2.6-.8v13.9c0 7.2 4.6 13.6 11.5 15.8 4 1.3 8 2.6 11.9 4 1.8.6 3.6.9 5.5.9 3.4 0 6.8-1.1 9.6-3 4.4-3.1 7-8.1 7-13.5v-1.6h.7c1.2 8.3 2.4 15.3 3.8 21.1 1.1 4.7 4.2 8.7 8.4 10.9 4.9 2.6 9.3 5.2 13 7.7 2.8 1.9 6 2.9 9.3 2.9 4.1 0 8-1.5 11-4.2 4-3.6 5.9-8.8 5.4-13.9h.7c3.8 0 7.5-1.4 10.4-4 5-5 6.4-12.8 3-19.1zm-571.8-88.7c-3 1.4-5.5 3.8-7.1 6.7-3.4-6.6-8-19.2-12.5-42.8-3.4-18.1-6.4-40.9-8.1-62.4 7.3-4.4 11.7-11.8 11.7-20.7v-4.1c1.3.5 2.7.9 4.1 1.1h.3c.7.1 1.4.2 2.2.2h.3c.9.1 1.8.1 2.6.1h.3c2 .1 4 .1 6 .2v121.7zm68.1-2.5h-6.5V880.8c2.3-.8 4.4-2.1 6.2-3.9l.3-.3v123.7zm91-31.7h-9.6c-8.6 0-15.5 7-15.5 15.5v.6h-1.6c-.9 0-1.8.1-2.7.2V913c.9.1 1.8.2 2.7.2h12.3c6.2 0 11.6-3.4 14.4-8.4v63.8z"
       id="path4264" />
    <path
       d="M192.4 860.2l1.1.3.9.2c.2 0 .4.1.6.1 2.9.6 6.8 1.5 6.8 1.5.3.1.7.1 1 .1 1 0 2-.3 2.8-1 1.1-.9 1.7-2.2 1.7-3.5v-10.1c0-2.1-1.4-3.9-3.5-4.4-1.2-.3-2.6-.6-3.8-.9-.1 0-.1 0-.2-.1-15.1-3.8-29.1-7.8-41.6-11.9V787c10.9 5.7 23.9 11.2 38.6 16.4.1 0 .1.1.2.1.3.1.8.3 1.5.5 1 .4 2.1.7 3.2 1.1 4.8 1.6 11.3 3.8 11.3 3.8.5.2 1 .2 1.4.2.9 0 1.9-.3 2.6-.9 1.2-.9 1.9-2.2 1.9-3.7v-10.8c0-2.1-1.4-3.9-3.5-4.4-1.5-.4-3.9-1.2-4-1.2-.1 0-.2-.1-.2-.1-23.4-7.7-42-16.1-55.2-24.8-5.6-3.9-11.9-8.8-12-8.8-.8-.6-1.8-.9-2.8-.9-.7 0-1.4.2-2 .5-1.6.8-2.5 2.3-2.5 4.1v16.5l3.3 329.9c0 1.7 1 3.3 2.6 4.1.6.3 1.3.4 1.9.4 1 0 2.1-.4 2.9-1 3.4-2.8 7.4-5.6 11.8-8.3 1.4-.8 2.2-2.3 2.2-3.9l-3.2-245.1c10.4 3.3 21.6 6.4 33.5 9.4.3 0 .5 0 .7.1zm98.3 196.4c3.7-.7 7.7-1.5 12.3-2.4 2.1-.4 3.7-2.3 3.7-4.5V813.9c0-2.2-1.6-4.1-3.8-4.5 0 0-4.9-.8-10.6-1.7-12.3-2.5-24.2-5.1-35.5-7.9-6.7-1.9-13-4.3-13-4.4-.5-.2-1.1-.3-1.6-.3-.9 0-1.8.3-2.6.8-1.2.8-2 2.2-2 3.7v263.5c0 1.4.7 2.7 1.8 3.6.8.6 1.8.9 2.8.9.4 0 .8-.1 1.2-.2 3.7-1 7.8-2 12.3-3.1 2-.5 3.5-2.3 3.5-4.4V873.3c8.5 1.5 17.3 3 26.3 4.4v174.4c0 1.4.6 2.6 1.7 3.5.8.7 1.8 1 2.9 1h.6zm-5.4-198.1c-9-1.4-17.8-2.9-26.3-4.5v-34.1c8.5 2 17.3 3.9 26.3 5.8v32.8zm53.5 190.3c.1 0 10.4-2 19.9-3.7 11.2-1.5 22.6-2.9 33.9-4.2h.2c5.1-.4 13.7-3.2 13.7-11.3V886.7c0-.3.1-.6.1-1.1 0-.5 0-1-.1-1.6v-.1c-.5-2.9-2.2-4.8-4.2-6.1.2-1 .2-1.8.2-2.2V832c0-4.7-4.1-7.7-8.4-8.7-.3-.1-.7-.2-1.1-.3-16.3-1.8-32.3-3.9-47.5-6.1h-.1c-1.4-.2-4.8-.8-6.4-1.2-.3-.1-.7-.1-1.1-.1-1 0-2 .3-2.8 1-1.1.9-1.7 2.2-1.7 3.6v224.2c0 1.4.6 2.6 1.7 3.5.8.7 1.8 1 2.9 1 .2-.1.5-.1.8-.1zm16-211.3c8.6 1.2 17.4 2.3 26.3 3.3v29.8c-8.9-.9-17.7-1.8-26.3-2.7v-30.4zm0 49.6c10 1.1 20.2 2.1 30.3 3.1v132.5c-10.2 1.2-20.3 2.4-30.3 3.8V887.1zm81.4-58.1c-.9.9-1.5 2.1-1.5 3.3v199.2c0 1.3.5 2.5 1.5 3.3.8.8 1.9 1.2 3.1 1.2h.4l12.3-.9c2.4-.2 4.2-2.1 4.2-4.5v-135c5 .3 10 .5 14.8.8.8 11.9 2.6 35.2 6.4 59.7 5.5 35.2 13.1 60.1 22.7 74.1.8 1.2 2.3 2 3.8 2h.2c4.5-.2 9-.4 13.5-.5 1.8-.1 3.4-1.2 4.1-2.9.6-1.7.2-3.6-1.1-4.9-17.6-16.9-26.4-87.9-29-126.8 6.6-1.3 12.2-5.6 12.2-13.4v-44c0-5.2-4.9-7.9-9.5-8.3h-.4c-16.1-.8-32.1-1.8-47.7-2.9h-.2c-3.3-.3-6.4-.5-6.4-.5h-.4c-1-.2-2.1.2-3 1zm20 19.1c8.6.6 17.5 1.1 26.3 1.6v28c-.6.1-1.3.2-2.3.2l-24-1.2v-28.6zm81.6 183.2s.7 0 1.7-.1c20.1-.6 40.7-.9 61.2-.9h3.3c2.5 0 4.5-2 4.5-4.5v-9.9c0-1.2-.5-2.4-1.3-3.2-.9-.9-2-1.3-3.2-1.3h-3.3c-5.9 0-12.2 0-19.3.1v-159c7 .1 13.4.1 19.3.1h3.3c1.2 0 2.4-.5 3.2-1.3.9-.9 1.3-2 1.3-3.2v-9.9c0-2.5-2-4.5-4.5-4.5h-3.3c-20.4 0-40.9-.3-60.9-.9l-1.6-.1c-1.2 0-2.3.5-3.2 1.3-.9.9-1.4 2-1.4 3.3v9.8c0 2.3 1.7 4.2 4 4.5 0 0 .2 0 .6.1.3.1.5.1.8.1h.5c.7 0 1.5.1 2.1.1h.3c5.8.2 11.8.3 18 .4v159.5c-6.5.1-12.7.3-18.7.5h-.3c-2 0-3.6.1-3.7.1-2.4.1-4.3 2.1-4.3 4.5v10c0 1.3.5 2.5 1.4 3.3.8.8 2 1.2 3.1 1.2.2-.1.3-.1.4-.1zm159.3-9.7v-37.4c0-2.5-2-4.5-4.5-4.5h-12.3c-2.5 0-4.5 2-4.5 4.5v28.1c-8.7-.3-17.5-.5-26.3-.6V852.3c8.7-.2 17.6-.4 26.3-.6v28c0 2.5 2 4.5 4.5 4.5h12.3c2.5 0 4.5-2 4.5-4.5v-37.5c0-6.8-5.6-9.9-10.8-9.9h-.4c-14.8.5-29.9.9-45 1.1h-.4c-5.2 0-8.9 1.3-10.9 3.9-1.4 1.8-1.8 3.8-1.7 5.4v178.9c0 3.5 2.7 8.8 10.1 8.8h.6c15.8.2 31.8.6 47.3 1.1h.5c4.2-.1 6.6-1.8 8-3.2 2.6-2.6 2.7-5.8 2.7-6.7zm73.7 14.6c4.1.3 8.2.7 12.3 1h.4c1.1 0 2.2-.4 3.1-1.2.9-.9 1.5-2.1 1.5-3.3V836.8c0-5.7-4.1-9.5-10.1-9.5h-1.6c-13.7 1.1-27.8 2.1-42.1 3h-1.5c-13.6.4-13.9 8.4-13.9 9.3v188.9c0 2.4 1.9 4.4 4.3 4.5 4.1.2 8.2.4 12.3.7h.3c1.2 0 2.3-.4 3.1-1.2.9-.9 1.4-2.1 1.4-3.3V896.4c8.8-.4 17.6-.9 26.3-1.5v136.7c.1 2.4 1.9 4.4 4.2 4.6zm-30.4-158.8V849c8.7-.5 17.6-1.1 26.3-1.8v28.7c-8.7.5-17.5 1-26.3 1.5zm163.5-44.9c2.2-.4 3.8-2.3 3.8-4.5l-.1-10.2c0-1.3-.6-2.6-1.7-3.5-.8-.7-1.8-1-2.9-1-.3 0-.6 0-.9.1-.7.1-3.7.7-5.3.9-27.3 4.4-56.7 8.2-87.4 11.1-.8.1-1.5.3-2.1.8-.1.1-.2.1-.3.2-1.1.9-1.8 2.2-1.8 3.6v9.9c0 1.3.5 2.5 1.5 3.4.8.8 1.9 1.2 3 1.2h.4l1-.1h.3c12.1-1.2 24.3-2.5 36.3-3.9v198.4c0 2.3 1.7 4.2 4 4.5 4.1.5 8.2 1 12.3 1.6h.6c1.1 0 2.2-.4 3-1.1 1-.9 1.5-2.1 1.5-3.4V837.6c9.8-1.3 19.5-2.8 28.9-4.3 2.1-.2 5.8-.8 5.9-.8zm80-32.6c-1.3 0-2.4.2-3 .4h-.1c-14.6 3.6-30.5 6.9-47.1 10-.3.1-.6.1-.8.2-3 .9-7.8 4.2-7.8 11v219.8c-.1.9-.2 2.8.4 4.9 1.1 4 4.1 6.8 8.4 7.5.3 0 .5.1.7.1 16.2 3 31.7 6.3 46 9.8.1 0 .3.1.4.1.3.1 1.3.3 2.6.3 2.5 0 4.8-.7 6.6-2 1.8-1.4 4-4 4-9V813.3c0-4.5-1-8-3.1-10.3-1.9-2-4.4-3.1-7.2-3.1zm-11.1 242.2c-8.5-1.9-17.3-3.8-26.4-5.5V827.3c9.1-1.8 17.9-3.6 26.4-5.5v220.3zm85.1-76.4c2.8 61.3 6.9 103.5 12 125.5.3 1.3 1.1 2.4 2.3 3 5.3 2.8 10.1 5.6 14.2 8.4.8.5 1.7.8 2.5.8 1.1 0 2.2-.4 3-1.2 1.6-1.4 2-3.7 1-5.5-10.9-20.5-16.6-156.3-17.8-244.8 2.3-.7 4.5-1.4 6.6-2.1.2 0 .3-.1.5-.1 6.4-2.2 7.5-9 7.2-12.6v-57.9c0-11.3-7.5-12.2-9.9-12.2-3.8 0-7.5 1.9-9.4 3-11.6 6.1-25.9 12.1-42.6 17.7-.1 0-.2.1-.3.1-6 2.4-7.1 8-6.9 10.9v271.6c0 2 1.3 3.7 3.2 4.3 4.2 1.3 8.3 2.7 12.2 4.1.5.2 1 .3 1.5.3.9 0 1.8-.3 2.6-.8 1.2-.9 1.9-2.2 1.9-3.7V861.1c4.4-1.1 8.7-2.2 12.9-3.3.3 21 1.2 63.7 3.3 107.9zm-16.2-162.6c9.5-3.4 18.3-6.9 26.3-10.5v41.5c-8.2 2.5-17 5-26.3 7.3v-38.3z"
       fill="#E7AD00"
       id="path4266" />
    <text
       xml:space="preserve"
       style="font-style:normal;font-weight:normal;font-size:40px;line-height:125%;font-family:sans-serif;letter-spacing:0px;word-spacing:0px;fill:#bcbcbc;fill-opacity:1;stroke:none;stroke-width:1px;stroke-linecap:butt;stroke-linejoin:miter;stroke-opacity:1;"
       x="427.30869"
       y="1148.8788"
       id="text4274"
       sodipodi:linespacing="125%"><tspan
         sodipodi:role="line"
         id="tspan4276"
         x="427.30869"
         y="1148.8788"
         style="font-style:normal;font-variant:normal;font-weight:bold;font-stretch:normal;font-size:90px;font-family:'Segoe UI';-inkscape-font-specification:'Segoe UI Bold';fill:#bcbcbc;fill-opacity:1;">BUILDER</tspan></text>
  </g>
</svg>
